<svg xmlns="http://www.w3.org/2000/svg" xmlns:xlink="http://www.w3.org/1999/xlink" contentStyleType="text/css" data-diagram-type="DESCRIPTION" height="503px" preserveAspectRatio="none" style="width:1480px;height:503px;background:#FFFFFF;" version="1.1" viewBox="0 0 1480 503" width="1480px" zoomAndPan="magnify"><defs/><g><!--cluster Electric Power Steering (EPS)--><g class="cluster" data-entity="Electric Power Steering .EPS." data-source-line="6" data-uid="ent0005" id="cluster_Electric Power Steering .EPS."><rect fill="none" height="368.35" rx="2.5" ry="2.5" style="stroke:#181818;stroke-width:1;" width="1408" x="66.52" y="128.99"/><text fill="#000000" font-family="sans-serif" font-size="14" font-weight="bold" lengthAdjust="spacing" textLength="205.4678" x="667.7861" y="144.5252">Electric Power Steering (EPS)</text></g><!--entity UC1--><g class="entity" data-entity="UC1" data-source-line="7" data-uid="ent0006" id="entity_UC1"><ellipse cx="947.5165" cy="465.3473" fill="#F1F1F1" rx="67.9365" ry="15.9873" style="stroke:#181818;stroke-width:0.5;"/><text fill="#000000" font-family="sans-serif" font-size="14" lengthAdjust="spacing" textLength="100.3516" x="897.3408" y="470.0915">Assist Steering</text></g><!--entity UC2--><g class="entity" data-entity="UC2" data-source-line="8" data-uid="ent0007" id="entity_UC2"><ellipse cx="180.5231" cy="340.8706" fill="#F1F1F1" rx="98.1031" ry="22.0206" style="stroke:#181818;stroke-width:0.5;"/><text fill="#000000" font-family="sans-serif" font-size="14" lengthAdjust="spacing" textLength="171.4111" x="94.8175" y="345.6148">Manual Steering Override</text></g><!--entity UC3--><g class="entity" data-entity="UC3" data-source-line="9" data-uid="ent0008" id="entity_UC3"><ellipse cx="798.5244" cy="194.1229" fill="#F1F1F1" rx="138.6644" ry="30.1329" style="stroke:#181818;stroke-width:0.5;"/><text fill="#000000" font-family="sans-serif" font-size="14" lengthAdjust="spacing" textLength="258.501" x="669.2739" y="198.867">Self-Diagnosis and Fault Management</text></g><!--entity UC4--><g class="entity" data-entity="UC4" data-source-line="10" data-uid="ent0009" id="entity_UC4"><ellipse cx="383.5178" cy="340.8656" fill="#F1F1F1" rx="69.6278" ry="16.3256" style="stroke:#181818;stroke-width:0.5;"/><text fill="#000000" font-family="sans-serif" font-size="14" lengthAdjust="spacing" textLength="104.6924" x="331.1717" y="345.6097">Fault Indication</text></g><!--entity UC5--><g class="entity" data-entity="UC5" data-source-line="11" data-uid="ent0010" id="entity_UC5"><ellipse cx="562.521" cy="340.8702" fill="#F1F1F1" rx="74.451" ry="17.2902" style="stroke:#181818;stroke-width:0.5;"/><text fill="#000000" font-family="sans-serif" font-size="14" lengthAdjust="spacing" textLength="116.7236" x="504.1592" y="345.6143">Torque Feedback</text></g><!--entity UC6--><g class="entity" data-entity="UC6" data-source-line="12" data-uid="ent0011" id="entity_UC6"><ellipse cx="541.5246" cy="194.1189" fill="#F1F1F1" rx="83.2946" ry="19.0589" style="stroke:#181818;stroke-width:0.5;"/><text fill="#000000" font-family="sans-serif" font-size="14" lengthAdjust="spacing" textLength="137.8125" x="472.6183" y="198.8631">Energy Management</text></g><!--entity UC7--><g class="entity" data-entity="UC7" data-source-line="13" data-uid="ent0012" id="entity_UC7"><ellipse cx="338.5174" cy="194.1215" fill="#F1F1F1" rx="84.8574" ry="19.3715" style="stroke:#181818;stroke-width:0.5;"/><text fill="#000000" font-family="sans-serif" font-size="14" lengthAdjust="spacing" textLength="141.4424" x="267.7962" y="198.8656">CAN Communication</text></g><!--entity UC8--><g class="entity" data-entity="UC8" data-source-line="14" data-uid="ent0013" id="entity_UC8"><ellipse cx="150.5229" cy="194.1246" fill="#F1F1F1" rx="68.3229" ry="16.0646" style="stroke:#181818;stroke-width:0.5;"/><text fill="#000000" font-family="sans-serif" font-size="14" lengthAdjust="spacing" textLength="101.3496" x="99.8481" y="198.8687">Fail-Safe Mode</text></g><!--entity UC9--><g class="entity" data-entity="UC9" data-source-line="15" data-uid="ent0014" id="entity_UC9"><ellipse cx="1322.5239" cy="194.1248" fill="#F1F1F1" rx="91.7739" ry="20.7548" style="stroke:#181818;stroke-width:0.5;"/><text fill="#000000" font-family="sans-serif" font-size="14" lengthAdjust="spacing" textLength="157.2471" x="1243.9004" y="198.8689">Support ADAS Features</text></g><!--entity UC10--><g class="entity" data-entity="UC10" data-source-line="16" data-uid="ent0015" id="entity_UC10"><ellipse cx="1065.5183" cy="194.1177" fill="#F1F1F1" rx="93.7383" ry="21.1477" style="stroke:#181818;stroke-width:0.5;"/><text fill="#000000" font-family="sans-serif" font-size="14" lengthAdjust="spacing" textLength="161.6699" x="984.6833" y="198.8618">Sensor Data Acquisition</text></g><!--entity UC11--><g class="entity" data-entity="UC11" data-source-line="17" data-uid="ent0016" id="entity_UC11"><ellipse cx="1358.5171" cy="340.8734" fill="#F1F1F1" rx="99.7171" ry="22.3434" style="stroke:#181818;stroke-width:0.5;"/><text fill="#000000" font-family="sans-serif" font-size="14" lengthAdjust="spacing" textLength="174.9863" x="1271.0239" y="345.6176">Return-to-Center Control</text></g><!--entity UC12--><g class="entity" data-entity="UC12" data-source-line="18" data-uid="ent0017" id="entity_UC12"><ellipse cx="947.5199" cy="340.87" fill="#F1F1F1" rx="145.4999" ry="31.5" style="stroke:#181818;stroke-width:0.5;"/><text fill="#000000" font-family="sans-serif" font-size="14" lengthAdjust="spacing" textLength="272.8154" x="811.1121" y="345.6141">Active Damping / Vibration Suppression</text></g><!--entity Driver--><g class="entity" data-entity="Driver" data-source-line="2" data-uid="ent0002" id="entity_Driver"><ellipse cx="26.5181" cy="164.38" fill="#F1F1F1" rx="8" ry="8" style="stroke:#181818;stroke-width:0.5;"/><path d="M26.5181,172.38 L26.5181,199.38 M13.5181,180.38 L39.5181,180.38 M26.5181,199.38 L13.5181,214.38 M26.5181,199.38 L39.5181,214.38" fill="none" style="stroke:#181818;stroke-width:0.5;"/><text fill="#000000" font-family="sans-serif" font-size="14" lengthAdjust="spacing" textLength="41.0361" x="6" y="229.4152">Driver</text></g><!--entity VCS--><g class="entity" data-entity="VCS" data-source-line="3" data-uid="ent0003" id="entity_VCS"><ellipse cx="440.5145" cy="14" fill="#F1F1F1" rx="8" ry="8" style="stroke:#181818;stroke-width:0.5;"/><path d="M440.5145,22 L440.5145,49 M427.5145,30 L453.5145,30 M440.5145,49 L427.5145,64 M440.5145,49 L453.5145,64" fill="none" style="stroke:#181818;stroke-width:0.5;"/><text fill="#000000" font-family="sans-serif" font-size="14" lengthAdjust="spacing" textLength="156.249" x="362.39" y="79.0352">Vehicle Control System</text></g><!--entity ADAS--><g class="entity" data-entity="ADAS" data-source-line="4" data-uid="ent0004" id="entity_ADAS"><ellipse cx="1322.5224" cy="14" fill="#F1F1F1" rx="8" ry="8" style="stroke:#181818;stroke-width:0.5;"/><path d="M1322.5224,22 L1322.5224,49 M1309.5224,30 L1335.5224,30 M1322.5224,49 L1309.5224,64 M1322.5224,49 L1335.5224,64" fill="none" style="stroke:#181818;stroke-width:0.5;"/><text fill="#000000" font-family="sans-serif" font-size="14" lengthAdjust="spacing" textLength="37.3447" x="1303.85" y="79.0352">ADAS</text></g><!--link Driver to UC1--><g class="link" data-entity-1="Driver" data-entity-2="UC1" data-source-line="21" data-uid="lnk18" id="link_Driver_UC1"><path d="M22.88,232.87 C21.24,273.68 25.77,337.57 64.52,372.37 C125.01,426.69 685.64,453.95 880.87,461.86" fill="none" id="Driver-UC1" style="stroke:#181818;stroke-width:1;"/></g><!--link Driver to UC2--><g class="link" data-entity-1="Driver" data-entity-2="UC2" data-source-line="22" data-uid="lnk19" id="link_Driver_UC2"><path d="M43.57,232.79 C51.93,248.47 63.11,266.07 76.52,279.37 C93.8,296.5 116.89,310.57 136.92,320.81" fill="none" id="Driver-UC2" style="stroke:#181818;stroke-width:1;"/></g><!--link Driver to UC4--><g class="link" data-entity-1="Driver" data-entity-2="UC4" data-source-line="23" data-uid="lnk20" id="link_Driver_UC4"><path d="M47.19,221.16 C64.01,240.43 89.48,265.64 117.52,279.37 C189.96,314.84 218.39,289.28 296.52,309.37 C314.19,313.91 333.37,320.45 349.22,326.32" fill="none" id="Driver-UC4" style="stroke:#181818;stroke-width:1;"/></g><!--link Driver to UC5--><g class="link" data-entity-1="Driver" data-entity-2="UC5" data-source-line="24" data-uid="lnk21" id="link_Driver_UC5"><path d="M47.17,216.39 C53.13,221.94 59.83,227.68 66.52,232.37 C85.32,245.54 136.48,272.93 158.52,279.37 C292.24,318.41 334.21,280.6 470.52,309.37 C488.96,313.26 508.87,319.58 525.44,325.46" fill="none" id="Driver-UC5" style="stroke:#181818;stroke-width:1;"/></g><!--link VCS to UC7--><g class="link" data-entity-1="VCS" data-entity-2="UC7" data-source-line="26" data-uid="lnk22" id="link_VCS_UC7"><path d="M414.78,82.19 C394.48,111.72 367.03,151.64 351.2,174.67" fill="none" id="VCS-UC7" style="stroke:#181818;stroke-width:1;"/></g><!--link VCS to UC6--><g class="link" data-entity-1="VCS" data-entity-2="UC6" data-source-line="27" data-uid="lnk23" id="link_VCS_UC6"><path d="M466,82.19 C486.22,111.89 513.6,152.11 529.23,175.07" fill="none" id="VCS-UC6" style="stroke:#181818;stroke-width:1;"/></g><!--link UC3 to UC4--><g class="link" data-entity-1="UC3" data-entity-2="UC4" data-source-line="29" data-uid="lnk24" id="link_UC3_UC4"><path d="M707.89,217.27 C686.48,222.36 663.72,227.66 642.52,232.37 C577.85,246.73 557.48,236.45 496.52,262.37 C459.3,278.18 421.68,307.17 400.61,324.86" fill="none" id="UC3-UC4" style="stroke:#181818;stroke-width:1;"/><text fill="#000000" font-family="sans-serif" font-size="13" lengthAdjust="spacing" textLength="59.3569" x="497.52" y="275.9384">&#171;include&#187;</text></g><!--link UC8 to UC2--><g class="link" data-entity-1="UC8" data-entity-2="UC2" data-source-line="30" data-uid="lnk25" id="link_UC8_UC2"><path d="M153.73,210.61 C159.11,236.57 169.96,288.92 176.07,318.41" fill="none" id="UC8-UC2" style="stroke:#181818;stroke-width:1;"/><text fill="#000000" font-family="sans-serif" font-size="13" lengthAdjust="spacing" textLength="59.3569" x="168.31" y="275.9384">&#171;include&#187;</text></g><!--link ADAS to UC9--><g class="link" data-entity-1="ADAS" data-entity-2="UC9" data-source-line="31" data-uid="lnk26" id="link_ADAS_UC9"><path d="M1322.52,82.19 C1322.52,111.03 1322.52,149.79 1322.52,173.03" fill="none" id="ADAS-UC9" style="stroke:#181818;stroke-width:1;"/></g><!--link UC9 to UC1--><g class="link" data-entity-1="UC9" data-entity-2="UC1" data-source-line="32" data-uid="lnk27" id="link_UC9_UC1"><path d="M1297.55,214.53 C1268.92,236.94 1220.76,275.12 1180.52,309.37 C1148.64,336.49 1144.5,347.93 1110.52,372.37 C1066.19,404.23 1009.85,433.89 976.35,450.51" fill="none" id="UC9-UC1" style="stroke:#181818;stroke-width:1;"/><text fill="#000000" font-family="sans-serif" font-size="13" lengthAdjust="spacing" textLength="59.3569" x="1181.52" y="345.9384">&#171;include&#187;</text></g><!--link UC9 to UC11--><g class="link" data-entity-1="UC9" data-entity-2="UC11" data-source-line="33" data-uid="lnk28" id="link_UC9_UC11"><path d="M1327.52,215.25 C1334.29,242.44 1346.29,290.69 1353.2,318.5" fill="none" id="UC9-UC11" style="stroke:#181818;stroke-width:1;"/><text fill="#000000" font-family="sans-serif" font-size="13" lengthAdjust="spacing" textLength="59.3569" x="1343.67" y="275.9384">&#171;include&#187;</text></g><!--link UC10 to UC1--><g class="link" data-entity-1="UC10" data-entity-2="UC1" data-source-line="34" data-uid="lnk29" id="link_UC10_UC1"><path d="M1014.41,212.29 C995.58,218.61 974.08,225.82 954.52,232.37 C851.89,266.69 786.8,221.57 723.52,309.37 C707.15,332.08 707.93,349.11 723.52,372.37 C759.69,426.32 833.79,448.65 886.86,457.88" fill="none" id="UC10-UC1" style="stroke:#181818;stroke-width:1;"/><text fill="#000000" font-family="sans-serif" font-size="13" lengthAdjust="spacing" textLength="59.3569" x="724.52" y="345.9384">&#171;include&#187;</text></g><!--link UC10 to UC5--><g class="link" data-entity-1="UC10" data-entity-2="UC5" data-source-line="35" data-uid="lnk30" id="link_UC10_UC5"><path d="M1020,213.02 C1000.18,220.13 976.49,227.71 954.52,232.37 C815.64,261.81 764.27,200.45 636.52,262.37 C608.39,276 585.31,305.11 572.77,323.52" fill="none" id="UC10-UC5" style="stroke:#181818;stroke-width:1;"/><text fill="#000000" font-family="sans-serif" font-size="13" lengthAdjust="spacing" textLength="59.3569" x="637.52" y="275.9384">&#171;include&#187;</text></g><!--link UC10 to UC12--><g class="link" data-entity-1="UC10" data-entity-2="UC12" data-source-line="36" data-uid="lnk31" id="link_UC10_UC12"><path d="M1049.11,215.25 C1029.16,239.72 995.31,281.25 972.21,309.58" fill="none" id="UC10-UC12" style="stroke:#181818;stroke-width:1;"/><text fill="#000000" font-family="sans-serif" font-size="13" lengthAdjust="spacing" textLength="59.3569" x="1011.06" y="275.9384">&#171;include&#187;</text></g><!--link UC11 to UC1--><g class="link" data-entity-1="UC11" data-entity-2="UC1" data-source-line="37" data-uid="lnk32" id="link_UC11_UC1"><path d="M1317.41,361.63 C1280.08,378.92 1223.12,403.65 1171.52,419.37 C1115.55,436.41 1049.71,448.74 1003.96,456.14" fill="none" id="UC11-UC1" style="stroke:#181818;stroke-width:1;"/><text fill="#000000" font-family="sans-serif" font-size="13" lengthAdjust="spacing" textLength="59.3569" x="1219.76" y="415.9384">&#171;include&#187;</text></g><!--link UC12 to UC1--><g class="link" data-entity-1="UC12" data-entity-2="UC1" data-source-line="38" data-uid="lnk33" id="link_UC12_UC1"><path d="M947.52,372.77 C947.52,397.15 947.52,430.11 947.52,449.12" fill="none" id="UC12-UC1" style="stroke:#181818;stroke-width:1;"/><text fill="#000000" font-family="sans-serif" font-size="13" lengthAdjust="spacing" textLength="59.3569" x="948.52" y="415.9384">&#171;include&#187;</text></g><!--SRC=[TP9DJ-Cm48Rl_XMZdfP3j3HGe2k45AL5ui27Dhkz3ywGjJQnYpz02F7VcIOkE9JUndwVUMSyOvJUM9Wih7eYEm5qC8G21s55_vHi2KgZlJKjL2_EKzU3gxBQKiMYgFgxJI249UbHDvmsMROSMoNXpZoJXSeJMQKR-B6ygmucy2e0WYE9Zjd2EUNy1zCR_YsdANADEc3xQNFBhLfLKsJpbAseVSWM2Xjjs1TGrt29eVN09jXGHzh7jACqRM2kTAqaUcLqP8vJve-nZu7WagY-H_a_8hCKMMgopSjkhPCKAeiRdcpN1JqkTZfkIBLPXGy4r-RZfMUZbuRrsbZVJv-RGXyikGZEnoFHZlUrG8zGoCUWd4ggJWzJzZUnZSwyoKhkddSNly0M7ksba9v_3HjtwyrQVi9AtTl-HR1fZjjnIPrSl0an_3F8idx7wIaVdOv7fvaG_E-6-FGpF162rnWJu1USdoijsr3JnGKBPz7tYz2FgrVc3CrZAplPMs5NcHxkozagi_qv-QuqtMkNVw-y0m00]--></g></svg>