<svg xmlns="http://www.w3.org/2000/svg" xmlns:xlink="http://www.w3.org/1999/xlink" contentStyleType="text/css" data-diagram-type="CLASS" height="605px" preserveAspectRatio="none" style="width:1580px;height:605px;background:#FFFFFF;" version="1.1" viewBox="0 0 1580 605" width="1580px" zoomAndPan="magnify"><defs/><g><!--class EPS--><g class="entity" data-entity="EPS" data-source-line="8" data-uid="ent0002" id="entity_EPS"><rect fill="#FFFFE0" height="56.6211" rx="2.5" ry="2.5" style="stroke:#000000;stroke-width:0.5;" width="222.2715" x="697.6" y="7"/><ellipse cx="712.6" cy="27.3105" fill="#ADD1B2" rx="11" ry="11" style="stroke:#181818;stroke-width:1;"/><path d="M715.0731,33.4536 Q714.4921,33.7524 713.8529,33.9019 Q713.2138,34.0513 712.5082,34.0513 Q710.0014,34.0513 708.6815,32.3994 Q707.3617,30.7476 707.3617,27.6265 Q707.3617,24.4971 708.6815,22.8452 Q710.0014,21.1934 712.5082,21.1934 Q713.2138,21.1934 713.8612,21.3428 Q714.5087,21.4922 715.0731,21.791 L715.0731,24.5137 Q714.4423,23.9326 713.8488,23.6628 Q713.2553,23.3931 712.6244,23.3931 Q711.2797,23.3931 710.5949,24.4597 Q709.9101,25.5264 709.9101,27.6265 Q709.9101,29.7183 710.5949,30.7849 Q711.2797,31.8516 712.6244,31.8516 Q713.2553,31.8516 713.8488,31.5818 Q714.4423,31.312 715.0731,30.731 Z " fill="#000000"/><text fill="#000000" font-family="sans-serif" font-size="12" font-style="italic" lengthAdjust="spacing" textLength="44.127" x="799.6723" y="23.6016">&#171;block&#187;</text><text fill="#000000" font-family="sans-serif" font-size="14" lengthAdjust="spacing" textLength="190.2715" x="726.6" y="39.668">Electric Power Steering (EPS)</text><line style="stroke:#000000;stroke-width:0.5;" x1="698.6" x2="918.8715" y1="47.6211" y2="47.6211"/><line style="stroke:#000000;stroke-width:0.5;" x1="698.6" x2="918.8715" y1="55.6211" y2="55.6211"/></g><!--class TS--><g class="entity" data-entity="TS" data-source-line="9" data-uid="ent0003" id="entity_TS"><rect fill="#FFFFE0" height="56.6211" rx="2.5" ry="2.5" style="stroke:#000000;stroke-width:0.5;" width="130.4033" x="127.53" y="140.63"/><ellipse cx="142.53" cy="160.9405" fill="#ADD1B2" rx="11" ry="11" style="stroke:#181818;stroke-width:1;"/><path d="M145.0031,167.0836 Q144.4221,167.3824 143.7829,167.5319 Q143.1438,167.6813 142.4382,167.6813 Q139.9314,167.6813 138.6115,166.0294 Q137.2917,164.3776 137.2917,161.2565 Q137.2917,158.1271 138.6115,156.4752 Q139.9314,154.8234 142.4382,154.8234 Q143.1438,154.8234 143.7912,154.9728 Q144.4387,155.1222 145.0031,155.421 L145.0031,158.1437 Q144.3723,157.5626 143.7788,157.2928 Q143.1853,157.0231 142.5544,157.0231 Q141.2097,157.0231 140.5249,158.0897 Q139.8401,159.1564 139.8401,161.2565 Q139.8401,163.3483 140.5249,164.4149 Q141.2097,165.4816 142.5544,165.4816 Q143.1853,165.4816 143.7788,165.2118 Q144.3723,164.942 145.0031,164.361 Z " fill="#000000"/><text fill="#000000" font-family="sans-serif" font-size="12" font-style="italic" lengthAdjust="spacing" textLength="44.127" x="183.6682" y="157.2316">&#171;block&#187;</text><text fill="#000000" font-family="sans-serif" font-size="14" lengthAdjust="spacing" textLength="98.4033" x="156.53" y="173.298">Torque Sensor</text><line style="stroke:#000000;stroke-width:0.5;" x1="128.53" x2="256.9333" y1="181.2511" y2="181.2511"/><line style="stroke:#000000;stroke-width:0.5;" x1="128.53" x2="256.9333" y1="189.2511" y2="189.2511"/></g><!--class SAS--><g class="entity" data-entity="SAS" data-source-line="10" data-uid="ent0004" id="entity_SAS"><rect fill="#FFFFE0" height="56.6211" rx="2.5" ry="2.5" style="stroke:#000000;stroke-width:0.5;" width="180.8457" x="293.31" y="140.63"/><ellipse cx="308.31" cy="160.9405" fill="#ADD1B2" rx="11" ry="11" style="stroke:#181818;stroke-width:1;"/><path d="M310.7831,167.0836 Q310.2021,167.3824 309.5629,167.5319 Q308.9238,167.6813 308.2182,167.6813 Q305.7114,167.6813 304.3915,166.0294 Q303.0717,164.3776 303.0717,161.2565 Q303.0717,158.1271 304.3915,156.4752 Q305.7114,154.8234 308.2182,154.8234 Q308.9238,154.8234 309.5712,154.9728 Q310.2187,155.1222 310.7831,155.421 L310.7831,158.1437 Q310.1523,157.5626 309.5588,157.2928 Q308.9653,157.0231 308.3344,157.0231 Q306.9897,157.0231 306.3049,158.0897 Q305.6201,159.1564 305.6201,161.2565 Q305.6201,163.3483 306.3049,164.4149 Q306.9897,165.4816 308.3344,165.4816 Q308.9653,165.4816 309.5588,165.2118 Q310.1523,164.942 310.7831,164.361 Z " fill="#000000"/><text fill="#000000" font-family="sans-serif" font-size="12" font-style="italic" lengthAdjust="spacing" textLength="44.127" x="374.6694" y="157.2316">&#171;block&#187;</text><text fill="#000000" font-family="sans-serif" font-size="14" lengthAdjust="spacing" textLength="148.8457" x="322.31" y="173.298">Steering Angle Sensor</text><line style="stroke:#000000;stroke-width:0.5;" x1="294.31" x2="473.1557" y1="181.2511" y2="181.2511"/><line style="stroke:#000000;stroke-width:0.5;" x1="294.31" x2="473.1557" y1="189.2511" y2="189.2511"/></g><!--class VSS--><g class="entity" data-entity="VSS" data-source-line="11" data-uid="ent0005" id="entity_VSS"><rect fill="#FFFFE0" height="56.6211" rx="2.5" ry="2.5" style="stroke:#000000;stroke-width:0.5;" width="175.8213" x="508.83" y="140.63"/><ellipse cx="523.83" cy="160.9405" fill="#ADD1B2" rx="11" ry="11" style="stroke:#181818;stroke-width:1;"/><path d="M526.3031,167.0836 Q525.7221,167.3824 525.0829,167.5319 Q524.4438,167.6813 523.7382,167.6813 Q521.2314,167.6813 519.9115,166.0294 Q518.5917,164.3776 518.5917,161.2565 Q518.5917,158.1271 519.9115,156.4752 Q521.2314,154.8234 523.7382,154.8234 Q524.4438,154.8234 525.0912,154.9728 Q525.7387,155.1222 526.3031,155.421 L526.3031,158.1437 Q525.6723,157.5626 525.0788,157.2928 Q524.4853,157.0231 523.8544,157.0231 Q522.5097,157.0231 521.8249,158.0897 Q521.1401,159.1564 521.1401,161.2565 Q521.1401,163.3483 521.8249,164.4149 Q522.5097,165.4816 523.8544,165.4816 Q524.4853,165.4816 525.0788,165.2118 Q525.6723,164.942 526.3031,164.361 Z " fill="#000000"/><text fill="#000000" font-family="sans-serif" font-size="12" font-style="italic" lengthAdjust="spacing" textLength="44.127" x="587.6772" y="157.2316">&#171;block&#187;</text><text fill="#000000" font-family="sans-serif" font-size="14" lengthAdjust="spacing" textLength="143.8213" x="537.83" y="173.298">Vehicle Speed Sensor</text><line style="stroke:#000000;stroke-width:0.5;" x1="509.83" x2="683.6513" y1="181.2511" y2="181.2511"/><line style="stroke:#000000;stroke-width:0.5;" x1="509.83" x2="683.6513" y1="189.2511" y2="189.2511"/></g><!--class EM--><g class="entity" data-entity="EM" data-source-line="12" data-uid="ent0006" id="entity_EM"><rect fill="#FFFFE0" height="56.6211" rx="2.5" ry="2.5" style="stroke:#000000;stroke-width:0.5;" width="125.4404" x="862.02" y="274.25"/><ellipse cx="877.02" cy="294.5605" fill="#ADD1B2" rx="11" ry="11" style="stroke:#181818;stroke-width:1;"/><path d="M879.4931,300.7036 Q878.9121,301.0024 878.2729,301.1519 Q877.6338,301.3013 876.9282,301.3013 Q874.4214,301.3013 873.1015,299.6494 Q871.7817,297.9976 871.7817,294.8765 Q871.7817,291.7471 873.1015,290.0952 Q874.4214,288.4434 876.9282,288.4434 Q877.6338,288.4434 878.2812,288.5928 Q878.9287,288.7422 879.4931,289.041 L879.4931,291.7637 Q878.8623,291.1826 878.2688,290.9128 Q877.6753,290.6431 877.0444,290.6431 Q875.6997,290.6431 875.0149,291.7097 Q874.3301,292.7764 874.3301,294.8765 Q874.3301,296.9683 875.0149,298.0349 Q875.6997,299.1016 877.0444,299.1016 Q877.6753,299.1016 878.2688,298.8318 Q878.8623,298.562 879.4931,297.981 Z " fill="#000000"/><text fill="#000000" font-family="sans-serif" font-size="12" font-style="italic" lengthAdjust="spacing" textLength="44.127" x="915.6767" y="290.8516">&#171;block&#187;</text><text fill="#000000" font-family="sans-serif" font-size="14" lengthAdjust="spacing" textLength="93.4404" x="891.02" y="306.918">Electric Motor</text><line style="stroke:#000000;stroke-width:0.5;" x1="863.02" x2="986.4604" y1="314.8711" y2="314.8711"/><line style="stroke:#000000;stroke-width:0.5;" x1="863.02" x2="986.4604" y1="322.8711" y2="322.8711"/></g><!--class ECU--><g class="entity" data-entity="ECU" data-source-line="13" data-uid="ent0007" id="entity_ECU"><rect fill="#FFFFE0" height="56.6211" rx="2.5" ry="2.5" style="stroke:#000000;stroke-width:0.5;" width="160.8643" x="1101.3" y="140.63"/><ellipse cx="1116.3" cy="160.9405" fill="#ADD1B2" rx="11" ry="11" style="stroke:#181818;stroke-width:1;"/><path d="M1118.7731,167.0836 Q1118.1921,167.3824 1117.5529,167.5319 Q1116.9138,167.6813 1116.2082,167.6813 Q1113.7014,167.6813 1112.3815,166.0294 Q1111.0617,164.3776 1111.0617,161.2565 Q1111.0617,158.1271 1112.3815,156.4752 Q1113.7014,154.8234 1116.2082,154.8234 Q1116.9138,154.8234 1117.5612,154.9728 Q1118.2087,155.1222 1118.7731,155.421 L1118.7731,158.1437 Q1118.1423,157.5626 1117.5488,157.2928 Q1116.9553,157.0231 1116.3244,157.0231 Q1114.9797,157.0231 1114.2949,158.0897 Q1113.6101,159.1564 1113.6101,161.2565 Q1113.6101,163.3483 1114.2949,164.4149 Q1114.9797,165.4816 1116.3244,165.4816 Q1116.9553,165.4816 1117.5488,165.2118 Q1118.1423,164.942 1118.7731,164.361 Z " fill="#000000"/><text fill="#000000" font-family="sans-serif" font-size="12" font-style="italic" lengthAdjust="spacing" textLength="44.127" x="1172.6687" y="157.2316">&#171;block&#187;</text><text fill="#000000" font-family="sans-serif" font-size="14" lengthAdjust="spacing" textLength="128.8643" x="1130.3" y="173.298">Motor Driver / ECU</text><line style="stroke:#000000;stroke-width:0.5;" x1="1102.3" x2="1261.1643" y1="181.2511" y2="181.2511"/><line style="stroke:#000000;stroke-width:0.5;" x1="1102.3" x2="1261.1643" y1="189.2511" y2="189.2511"/></g><!--class RG--><g class="entity" data-entity="RG" data-source-line="14" data-uid="ent0008" id="entity_RG"><rect fill="#FFFFE0" height="56.6211" rx="2.5" ry="2.5" style="stroke:#000000;stroke-width:0.5;" width="219.2363" x="755.12" y="407.87"/><ellipse cx="770.12" cy="428.1805" fill="#ADD1B2" rx="11" ry="11" style="stroke:#181818;stroke-width:1;"/><path d="M772.5931,434.3236 Q772.0121,434.6224 771.3729,434.7719 Q770.7338,434.9213 770.0282,434.9213 Q767.5214,434.9213 766.2015,433.2694 Q764.8817,431.6176 764.8817,428.4965 Q764.8817,425.3671 766.2015,423.7152 Q767.5214,422.0634 770.0282,422.0634 Q770.7338,422.0634 771.3812,422.2128 Q772.0287,422.3622 772.5931,422.661 L772.5931,425.3837 Q771.9623,424.8026 771.3688,424.5328 Q770.7753,424.2631 770.1444,424.2631 Q768.7997,424.2631 768.1149,425.3297 Q767.4301,426.3964 767.4301,428.4965 Q767.4301,430.5883 768.1149,431.6549 Q768.7997,432.7216 770.1444,432.7216 Q770.7753,432.7216 771.3688,432.4518 Q771.9623,432.182 772.5931,431.601 Z " fill="#000000"/><text fill="#000000" font-family="sans-serif" font-size="12" font-style="italic" lengthAdjust="spacing" textLength="44.127" x="855.6747" y="424.4716">&#171;block&#187;</text><text fill="#000000" font-family="sans-serif" font-size="14" lengthAdjust="spacing" textLength="187.2363" x="784.12" y="440.538">Reduction Gear / Ball Screw</text><line style="stroke:#000000;stroke-width:0.5;" x1="756.12" x2="973.3563" y1="448.4911" y2="448.4911"/><line style="stroke:#000000;stroke-width:0.5;" x1="756.12" x2="973.3563" y1="456.4911" y2="456.4911"/></g><!--class BAT--><g class="entity" data-entity="BAT" data-source-line="15" data-uid="ent0009" id="entity_BAT"><rect fill="#FFFFE0" height="56.6211" rx="2.5" ry="2.5" style="stroke:#000000;stroke-width:0.5;" width="185.5967" x="1022.94" y="274.25"/><ellipse cx="1037.94" cy="294.5605" fill="#ADD1B2" rx="11" ry="11" style="stroke:#181818;stroke-width:1;"/><path d="M1040.4131,300.7036 Q1039.8321,301.0024 1039.1929,301.1519 Q1038.5538,301.3013 1037.8482,301.3013 Q1035.3414,301.3013 1034.0215,299.6494 Q1032.7017,297.9976 1032.7017,294.8765 Q1032.7017,291.7471 1034.0215,290.0952 Q1035.3414,288.4434 1037.8482,288.4434 Q1038.5538,288.4434 1039.2012,288.5928 Q1039.8487,288.7422 1040.4131,289.041 L1040.4131,291.7637 Q1039.7823,291.1826 1039.1888,290.9128 Q1038.5953,290.6431 1037.9644,290.6431 Q1036.6197,290.6431 1035.9349,291.7097 Q1035.2501,292.7764 1035.2501,294.8765 Q1035.2501,296.9683 1035.9349,298.0349 Q1036.6197,299.1016 1037.9644,299.1016 Q1038.5953,299.1016 1039.1888,298.8318 Q1039.7823,298.562 1040.4131,297.981 Z " fill="#000000"/><text fill="#000000" font-family="sans-serif" font-size="12" font-style="italic" lengthAdjust="spacing" textLength="44.127" x="1106.6749" y="290.8516">&#171;block&#187;</text><text fill="#000000" font-family="sans-serif" font-size="14" lengthAdjust="spacing" textLength="153.5967" x="1051.94" y="306.918">Battery / Power Supply</text><line style="stroke:#000000;stroke-width:0.5;" x1="1023.94" x2="1207.5367" y1="314.8711" y2="314.8711"/><line style="stroke:#000000;stroke-width:0.5;" x1="1023.94" x2="1207.5367" y1="322.8711" y2="322.8711"/></g><!--class ADAS--><g class="entity" data-entity="ADAS" data-source-line="16" data-uid="ent0010" id="entity_ADAS"><rect fill="#FFFFE0" height="56.6211" rx="2.5" ry="2.5" style="stroke:#000000;stroke-width:0.5;" width="141.9355" x="1249.77" y="274.25"/><ellipse cx="1264.77" cy="294.5605" fill="#ADD1B2" rx="11" ry="11" style="stroke:#181818;stroke-width:1;"/><path d="M1267.2431,300.7036 Q1266.6621,301.0024 1266.0229,301.1519 Q1265.3838,301.3013 1264.6782,301.3013 Q1262.1714,301.3013 1260.8515,299.6494 Q1259.5317,297.9976 1259.5317,294.8765 Q1259.5317,291.7471 1260.8515,290.0952 Q1262.1714,288.4434 1264.6782,288.4434 Q1265.3838,288.4434 1266.0312,288.5928 Q1266.6787,288.7422 1267.2431,289.041 L1267.2431,291.7637 Q1266.6123,291.1826 1266.0188,290.9128 Q1265.4253,290.6431 1264.7944,290.6431 Q1263.4497,290.6431 1262.7649,291.7097 Q1262.0801,292.7764 1262.0801,294.8765 Q1262.0801,296.9683 1262.7649,298.0349 Q1263.4497,299.1016 1264.7944,299.1016 Q1265.4253,299.1016 1266.0188,298.8318 Q1266.6123,298.562 1267.2431,297.981 Z " fill="#000000"/><text fill="#000000" font-family="sans-serif" font-size="12" font-style="italic" lengthAdjust="spacing" textLength="44.127" x="1311.6743" y="290.8516">&#171;block&#187;</text><text fill="#000000" font-family="sans-serif" font-size="14" lengthAdjust="spacing" textLength="109.9355" x="1278.77" y="306.918">ADAS Controller</text><line style="stroke:#000000;stroke-width:0.5;" x1="1250.77" x2="1390.7055" y1="314.8711" y2="314.8711"/><line style="stroke:#000000;stroke-width:0.5;" x1="1250.77" x2="1390.7055" y1="322.8711" y2="322.8711"/></g><!--class CAN--><g class="entity" data-entity="CAN" data-source-line="17" data-uid="ent0011" id="entity_CAN"><rect fill="#FFFFE0" height="56.6211" rx="2.5" ry="2.5" style="stroke:#000000;stroke-width:0.5;" width="143.1318" x="1430.17" y="274.25"/><ellipse cx="1445.17" cy="294.5605" fill="#ADD1B2" rx="11" ry="11" style="stroke:#181818;stroke-width:1;"/><path d="M1447.6431,300.7036 Q1447.0621,301.0024 1446.4229,301.1519 Q1445.7838,301.3013 1445.0782,301.3013 Q1442.5714,301.3013 1441.2515,299.6494 Q1439.9317,297.9976 1439.9317,294.8765 Q1439.9317,291.7471 1441.2515,290.0952 Q1442.5714,288.4434 1445.0782,288.4434 Q1445.7838,288.4434 1446.4312,288.5928 Q1447.0787,288.7422 1447.6431,289.041 L1447.6431,291.7637 Q1447.0123,291.1826 1446.4188,290.9128 Q1445.8253,290.6431 1445.1944,290.6431 Q1443.8497,290.6431 1443.1649,291.7097 Q1442.4801,292.7764 1442.4801,294.8765 Q1442.4801,296.9683 1443.1649,298.0349 Q1443.8497,299.1016 1445.1944,299.1016 Q1445.8253,299.1016 1446.4188,298.8318 Q1447.0123,298.562 1447.6431,297.981 Z " fill="#000000"/><text fill="#000000" font-family="sans-serif" font-size="12" font-style="italic" lengthAdjust="spacing" textLength="44.127" x="1492.6724" y="290.8516">&#171;block&#187;</text><text fill="#000000" font-family="sans-serif" font-size="14" lengthAdjust="spacing" textLength="111.1318" x="1459.17" y="306.918">Vehicle CAN Bus</text><line style="stroke:#000000;stroke-width:0.5;" x1="1431.17" x2="1572.3018" y1="314.8711" y2="314.8711"/><line style="stroke:#000000;stroke-width:0.5;" x1="1431.17" x2="1572.3018" y1="322.8711" y2="322.8711"/></g><!--class SW--><g class="entity" data-entity="SW" data-source-line="18" data-uid="ent0012" id="entity_SW"><rect fill="#FFFFE0" height="56.6211" rx="2.5" ry="2.5" style="stroke:#000000;stroke-width:0.5;" width="132.3105" x="126.58" y="274.25"/><ellipse cx="141.58" cy="294.5605" fill="#ADD1B2" rx="11" ry="11" style="stroke:#181818;stroke-width:1;"/><path d="M144.0531,300.7036 Q143.4721,301.0024 142.8329,301.1519 Q142.1938,301.3013 141.4882,301.3013 Q138.9814,301.3013 137.6615,299.6494 Q136.3417,297.9976 136.3417,294.8765 Q136.3417,291.7471 137.6615,290.0952 Q138.9814,288.4434 141.4882,288.4434 Q142.1938,288.4434 142.8412,288.5928 Q143.4887,288.7422 144.0531,289.041 L144.0531,291.7637 Q143.4223,291.1826 142.8288,290.9128 Q142.2353,290.6431 141.6044,290.6431 Q140.2597,290.6431 139.5749,291.7097 Q138.8901,292.7764 138.8901,294.8765 Q138.8901,296.9683 139.5749,298.0349 Q140.2597,299.1016 141.6044,299.1016 Q142.2353,299.1016 142.8288,298.8318 Q143.4223,298.562 144.0531,297.981 Z " fill="#000000"/><text fill="#000000" font-family="sans-serif" font-size="12" font-style="italic" lengthAdjust="spacing" textLength="44.127" x="183.6718" y="290.8516">&#171;block&#187;</text><text fill="#000000" font-family="sans-serif" font-size="14" lengthAdjust="spacing" textLength="100.3105" x="155.58" y="306.918">Steering Wheel</text><line style="stroke:#000000;stroke-width:0.5;" x1="127.58" x2="257.8905" y1="314.8711" y2="314.8711"/><line style="stroke:#000000;stroke-width:0.5;" x1="127.58" x2="257.8905" y1="322.8711" y2="322.8711"/></g><!--class SR--><g class="entity" data-entity="SR" data-source-line="19" data-uid="ent0013" id="entity_SR"><rect fill="#FFFFE0" height="56.6211" rx="2.5" ry="2.5" style="stroke:#000000;stroke-width:0.5;" width="123.9365" x="668.77" y="541.49"/><ellipse cx="683.77" cy="561.8005" fill="#ADD1B2" rx="11" ry="11" style="stroke:#181818;stroke-width:1;"/><path d="M686.2431,567.9436 Q685.6621,568.2424 685.0229,568.3919 Q684.3838,568.5413 683.6782,568.5413 Q681.1714,568.5413 679.8515,566.8894 Q678.5317,565.2376 678.5317,562.1165 Q678.5317,558.9871 679.8515,557.3352 Q681.1714,555.6834 683.6782,555.6834 Q684.3838,555.6834 685.0312,555.8328 Q685.6787,555.9822 686.2431,556.281 L686.2431,559.0037 Q685.6123,558.4226 685.0188,558.1528 Q684.4253,557.8831 683.7944,557.8831 Q682.4497,557.8831 681.7649,558.9497 Q681.0801,560.0164 681.0801,562.1165 Q681.0801,564.2083 681.7649,565.2749 Q682.4497,566.3416 683.7944,566.3416 Q684.4253,566.3416 685.0188,566.0718 Q685.6123,565.802 686.2431,565.221 Z " fill="#000000"/><text fill="#000000" font-family="sans-serif" font-size="12" font-style="italic" lengthAdjust="spacing" textLength="44.127" x="721.6748" y="558.0916">&#171;block&#187;</text><text fill="#000000" font-family="sans-serif" font-size="14" lengthAdjust="spacing" textLength="91.9365" x="697.77" y="574.158">Steering Rack</text><line style="stroke:#000000;stroke-width:0.5;" x1="669.77" x2="791.7065" y1="582.1111" y2="582.1111"/><line style="stroke:#000000;stroke-width:0.5;" x1="669.77" x2="791.7065" y1="590.1111" y2="590.1111"/></g><!--link EPS to TS--><g class="link" data-entity-1="EPS" data-entity-2="TS" data-source-line="21" data-uid="lnk14" id="link_EPS_TS"><path codeLine="21" d="M697.17,46.39 C615.87,55.14 503.51,70.16 406.74,93.63 C355.9,105.95 300.13,125.53 258.26,141.49" fill="none" id="EPS-TS" style="stroke:#181818;stroke-width:1;"/><text fill="#000000" font-family="sans-serif" font-size="13" lengthAdjust="spacing" textLength="80.3232" x="407.74" y="107.1984">reads torque</text></g><!--link EPS to SAS--><g class="link" data-entity-1="EPS" data-entity-2="SAS" data-source-line="22" data-uid="lnk15" id="link_EPS_SAS"><path codeLine="22" d="M697.13,53.28 C647.01,62.54 587.61,75.81 535.74,93.63 C499.9,105.93 461.58,124.71 432.39,140.3" fill="none" id="EPS-SAS" style="stroke:#181818;stroke-width:1;"/><text fill="#000000" font-family="sans-serif" font-size="13" lengthAdjust="spacing" textLength="73.0171" x="536.74" y="107.1984">reads angle</text></g><!--link EPS to VSS--><g class="link" data-entity-1="EPS" data-entity-2="VSS" data-source-line="23" data-uid="lnk16" id="link_EPS_VSS"><path codeLine="23" d="M697.2,58.24 C674.41,66.54 651.88,77.95 633.74,93.63 C619.67,105.78 610.38,124.56 604.63,140.19" fill="none" id="EPS-VSS" style="stroke:#181818;stroke-width:1;"/><text fill="#000000" font-family="sans-serif" font-size="13" lengthAdjust="spacing" textLength="76.1401" x="634.74" y="107.1984">reads speed</text></g><!--link EPS to EM--><g class="link" data-entity-1="EPS" data-entity-2="EM" data-source-line="24" data-uid="lnk17" id="link_EPS_EM"><path codeLine="24" d="M821.4,63.96 C825.67,73.36 830.44,83.94 834.74,93.63 C863.27,158 895.9,234.01 912.95,273.91" fill="none" id="EPS-EM" style="stroke:#181818;stroke-width:1;"/><text fill="#000000" font-family="sans-serif" font-size="13" lengthAdjust="spacing" textLength="37.8574" x="879.85" y="174.0084">drives</text></g><!--link EPS to ECU--><g class="link" data-entity-1="EPS" data-entity-2="ECU" data-source-line="25" data-uid="lnk18" id="link_EPS_ECU"><path codeLine="25" d="M920.31,56.96 C960.55,66.05 1005.85,78.22 1045.74,93.63 C1077.99,106.09 1112.13,124.76 1138.13,140.27" fill="none" id="EPS-ECU" style="stroke:#181818;stroke-width:1;"/><text fill="#000000" font-family="sans-serif" font-size="13" lengthAdjust="spacing" textLength="51.2637" x="1081.7" y="107.1984">controls</text></g><!--link EPS to RG--><g class="link" data-entity-1="EPS" data-entity-2="RG" data-source-line="26" data-uid="lnk19" id="link_EPS_RG"><path codeLine="26" d="M811.24,64.06 C816.16,116.43 828.08,233.37 844.74,330.87 C849.21,357.04 854.98,386.77 859.17,407.78" fill="none" id="EPS-RG" style="stroke:#181818;stroke-width:1;"/><text fill="#000000" font-family="sans-serif" font-size="13" lengthAdjust="spacing" textLength="52.6792" x="832.61" y="240.8184">actuates</text></g><!--link EPS to BAT--><g class="link" data-entity-1="EPS" data-entity-2="BAT" data-source-line="27" data-uid="lnk20" id="link_EPS_BAT"><path codeLine="27" d="M840.72,63.95 C899.69,114.9 1024.9,223.08 1083.82,273.98" fill="none" id="EPS-BAT" style="stroke:#181818;stroke-width:1;"/><text fill="#000000" font-family="sans-serif" font-size="13" lengthAdjust="spacing" textLength="45.373" x="993.75" y="174.0084">powers</text></g><!--link EPS to ADAS--><g class="link" data-entity-1="EPS" data-entity-2="ADAS" data-source-line="28" data-uid="lnk21" id="link_EPS_ADAS"><path codeLine="28" d="M920.31,47.29 C1043.16,61.68 1229.94,91.08 1279.74,140.63 C1315.4,176.11 1321.5,237.99 1321.76,273.8" fill="none" id="EPS-ADAS" style="stroke:#181818;stroke-width:1;"/><text fill="#000000" font-family="sans-serif" font-size="13" lengthAdjust="spacing" textLength="90.5684" x="1311.96" y="174.0084">ADAS override</text></g><!--link EPS to CAN--><g class="link" data-entity-1="EPS" data-entity-2="CAN" data-source-line="29" data-uid="lnk22" id="link_EPS_CAN"><path codeLine="29" d="M920.07,43.53 C1072.3,55.39 1335.16,83.61 1410.74,140.63 C1455.7,174.55 1481.78,237.6 1493.74,273.89" fill="none" id="EPS-CAN" style="stroke:#181818;stroke-width:1;"/><text fill="#000000" font-family="sans-serif" font-size="13" lengthAdjust="spacing" textLength="91.3809" x="1460.32" y="174.0084">communicates</text></g><!--link EPS to SW--><g class="link" data-entity-1="EPS" data-entity-2="SW" data-source-line="30" data-uid="lnk23" id="link_EPS_SW"><path codeLine="30" d="M697.47,43.47 C496.14,57.56 88.3,91.84 46.74,140.63 C6,188.44 80.01,242.13 136.74,273.83" fill="none" id="EPS-SW" style="stroke:#181818;stroke-width:1;"/><text fill="#000000" font-family="sans-serif" font-size="13" lengthAdjust="spacing" textLength="61.7373" x="47.74" y="174.0084">interfaces</text></g><!--link EPS to SR--><g class="link" data-entity-1="EPS" data-entity-2="SR" data-source-line="31" data-uid="lnk24" id="link_EPS_SR"><path codeLine="31" d="M802,64.07 C787.38,125.55 752.88,278.06 737.74,407.87 C732.31,454.4 730.99,508.93 730.72,541.08" fill="none" id="EPS-SR" style="stroke:#181818;stroke-width:1;"/><text fill="#000000" font-family="sans-serif" font-size="13" lengthAdjust="spacing" textLength="52.6792" x="758.85" y="307.6284">actuates</text></g><!--link TS to SW--><g class="link" data-entity-1="TS" data-entity-2="SW" data-source-line="33" data-uid="lnk25" id="link_TS_SW"><path codeLine="33" d="M192.74,197.53 C192.74,219.99 192.74,251.55 192.74,274" fill="none" id="TS-SW" style="stroke:#181818;stroke-width:1;"/><text fill="#000000" font-family="sans-serif" font-size="13" lengthAdjust="spacing" textLength="60.4424" x="193.74" y="240.8184">measures</text></g><!--link SAS to SW--><g class="link" data-entity-1="SAS" data-entity-2="SW" data-source-line="34" data-uid="lnk26" id="link_SAS_SW"><path codeLine="34" d="M343.7,197.53 C311.21,219.92 265.61,251.34 233.05,273.78" fill="none" id="SAS-SW" style="stroke:#181818;stroke-width:1;"/><text fill="#000000" font-family="sans-serif" font-size="13" lengthAdjust="spacing" textLength="60.4424" x="300.67" y="240.8184">measures</text></g><!--link EM to RG--><g class="link" data-entity-1="EM" data-entity-2="RG" data-source-line="35" data-uid="lnk27" id="link_EM_RG"><path codeLine="35" d="M912.16,331.15 C901.92,353.61 887.53,385.17 877.3,407.62" fill="none" id="EM-RG" style="stroke:#181818;stroke-width:1;"/><text fill="#000000" font-family="sans-serif" font-size="13" lengthAdjust="spacing" textLength="44.0781" x="899.33" y="374.4384">rotates</text></g><!--link RG to SR--><g class="link" data-entity-1="RG" data-entity-2="SR" data-source-line="36" data-uid="lnk28" id="link_RG_SR"><path codeLine="36" d="M836.65,464.77 C813.78,487.23 781.65,518.79 758.79,541.24" fill="none" id="RG-SR" style="stroke:#181818;stroke-width:1;"/><text fill="#000000" font-family="sans-serif" font-size="13" lengthAdjust="spacing" textLength="40.7202" x="806.76" y="508.0584">moves</text></g><!--link ECU to EM--><g class="link" data-entity-1="ECU" data-entity-2="EM" data-source-line="37" data-uid="lnk29" id="link_ECU_EM"><path codeLine="37" d="M1101.14,196.63 C1078.21,205.32 1053.55,215.72 1031.74,227.25 C1006.54,240.56 980.22,258.77 960,273.83" fill="none" id="ECU-EM" style="stroke:#181818;stroke-width:1;"/><text fill="#000000" font-family="sans-serif" font-size="13" lengthAdjust="spacing" textLength="51.2637" x="1032.74" y="240.8184">controls</text></g><!--link ECU to ADAS--><g class="link" data-entity-1="ECU" data-entity-2="ADAS" data-source-line="38" data-uid="lnk30" id="link_ECU_ADAS"><path codeLine="38" d="M1175.65,197.58 C1173.92,212.62 1174.54,230.83 1183.74,244.25 C1192.12,256.48 1220.61,269.28 1249.46,279.68" fill="none" id="ECU-ADAS" style="stroke:#181818;stroke-width:1;"/><text fill="#000000" font-family="sans-serif" font-size="13" lengthAdjust="spacing" textLength="120.7007" x="1184.74" y="240.8184">receives ADAS cmd</text></g><!--link ECU to CAN--><g class="link" data-entity-1="ECU" data-entity-2="CAN" data-source-line="39" data-uid="lnk31" id="link_ECU_CAN"><path codeLine="39" d="M1249.21,197.69 C1303.67,220.09 1379.92,251.45 1434.36,273.84" fill="none" id="ECU-CAN" style="stroke:#181818;stroke-width:1;"/><text fill="#000000" font-family="sans-serif" font-size="13" lengthAdjust="spacing" textLength="91.3809" x="1361.9" y="240.8184">communicates</text></g><!--link ECU to BAT--><g class="link" data-entity-1="ECU" data-entity-2="BAT" data-source-line="40" data-uid="lnk32" id="link_ECU_BAT"><path codeLine="40" d="M1123.75,197.7 C1112.89,205.66 1103,215.46 1096.74,227.25 C1089.05,241.71 1093.13,259.43 1099.45,273.94" fill="none" id="ECU-BAT" style="stroke:#181818;stroke-width:1;"/><text fill="#000000" font-family="sans-serif" font-size="13" lengthAdjust="spacing" textLength="45.373" x="1097.74" y="240.8184">powers</text></g><!--SRC=[VP91Rzim38Nl_XL4BziEnUv6KS1sWrwQeh3J5ZjgCfi8aIsNaXS4m_xxA2bot3bTBh79ZmpVU_a2ZKD2uuu3MdWp1CtHhX_WfpPoRpExL_qWI7GWjR0MVcV0drB8_PRCsBULqOPkRW9zUmiFQhjpFr1hSuYWeHRf7wZKF9xzoRAuycgbKJfI4fxC0SdVWwJwBNnTFJNVha1Ou0UOvjFOnj3xYD1WRmq5R7E1chOL_LP_e9lY0lw2EoKzDo2sS_gbkK1Fbw-DEt6hzH8BNRWZzOlbVOTLzHpHwdd9rjYEqYdJmpqAJvT2QsWauI4CrVVBcL8upl38yCd1SHZqCU1biLdonHrBhqplo6YDyUvG-zIEgdY4ShI1zC-Vs_owGzJHtzV_O3N_1I9LpwZC1trzxOFCWL2q5bn8EJLyPgaZVA2fuUD93UkpImtE8uVMMs-d4lkUWupwfoeRcuEGRXJkZ7hxSXYygrCjE9N7ByE9acgdCxmtVdNNZRsIyqtiHWwgvvpUX9oLw_clPfipsw6m8t7HQruKMLQwcOmBm_oI5dOco6MToO6psbWyYI2KwAs9xx9hK_-IaDZvOCbV]--></g></svg>