<svg xmlns="http://www.w3.org/2000/svg" xmlns:xlink="http://www.w3.org/1999/xlink" contentStyleType="text/css" data-diagram-type="CLASS" height="220px" preserveAspectRatio="none" style="width:9159px;height:220px;background:#FFFFFF;" version="1.1" viewBox="0 0 9159 220" width="9159px" zoomAndPan="magnify"><defs/><g><!--class REQ_001--><g class="entity" data-entity="REQ_001" data-source-line="5" data-uid="ent0002" id="entity_REQ_001"><rect fill="#F1F1F1" height="73.1094" rx="2.5" ry="2.5" style="stroke:#181818;stroke-width:0.5;" width="836.4961" x="4804.53" y="7"/><ellipse cx="5031.8864" cy="27.3105" fill="#ADD1B2" rx="11" ry="11" style="stroke:#181818;stroke-width:1;"/><path d="M5034.3596,33.4536 Q5033.7785,33.7524 5033.1394,33.9019 Q5032.5002,34.0513 5031.7946,34.0513 Q5029.2878,34.0513 5027.968,32.3994 Q5026.6482,30.7476 5026.6482,27.6265 Q5026.6482,24.4971 5027.968,22.8452 Q5029.2878,21.1934 5031.7946,21.1934 Q5032.5002,21.1934 5033.1477,21.3428 Q5033.7951,21.4922 5034.3596,21.791 L5034.3596,24.5137 Q5033.7287,23.9326 5033.1352,23.6628 Q5032.5417,23.3931 5031.9109,23.3931 Q5030.5661,23.3931 5029.8813,24.4597 Q5029.1965,25.5264 5029.1965,27.6265 Q5029.1965,29.7183 5029.8813,30.7849 Q5030.5661,31.8516 5031.9109,31.8516 Q5032.5417,31.8516 5033.1352,31.5818 Q5033.7287,31.312 5034.3596,30.731 Z " fill="#000000"/><text fill="#000000" font-family="sans-serif" font-size="12" font-style="italic" lengthAdjust="spacing" textLength="84.0586" x="5196.9988" y="23.6016">&#171;requirement&#187;</text><text fill="#000000" font-family="sans-serif" font-size="14" lengthAdjust="spacing" textLength="373.2832" x="5052.3864" y="39.668">REQ-001: EPS System Shall Provide Steering Assistance</text><line style="stroke:#181818;stroke-width:0.5;" x1="4805.53" x2="5640.0261" y1="47.6211" y2="47.6211"/><text fill="#000000" font-family="sans-serif" font-size="14" lengthAdjust="spacing" textLength="824.4961" x="4810.53" y="65.1563">"The EPS system shall provide electric steering assistance to the driver based on real-time inputs and vehicle conditions."</text><line style="stroke:#181818;stroke-width:0.5;" x1="4805.53" x2="5640.0261" y1="72.1094" y2="72.1094"/></g><!--class REQ_002--><g class="entity" data-entity="REQ_002" data-source-line="10" data-uid="ent0003" id="entity_REQ_002"><rect fill="#F1F1F1" height="73.1094" rx="2.5" ry="2.5" style="stroke:#181818;stroke-width:0.5;" width="795.5488" x="7" y="140.11"/><ellipse cx="148.8457" cy="160.4205" fill="#ADD1B2" rx="11" ry="11" style="stroke:#181818;stroke-width:1;"/><path d="M151.3188,166.5636 Q150.7378,166.8624 150.0986,167.0119 Q149.4595,167.1613 148.7539,167.1613 Q146.2471,167.1613 144.9272,165.5094 Q143.6074,163.8576 143.6074,160.7365 Q143.6074,157.6071 144.9272,155.9552 Q146.2471,154.3034 148.7539,154.3034 Q149.4595,154.3034 150.1069,154.4528 Q150.7544,154.6022 151.3188,154.901 L151.3188,157.6237 Q150.688,157.0426 150.0945,156.7728 Q149.501,156.5031 148.8701,156.5031 Q147.5254,156.5031 146.8406,157.5697 Q146.1558,158.6364 146.1558,160.7365 Q146.1558,162.8283 146.8406,163.8949 Q147.5254,164.9616 148.8701,164.9616 Q149.501,164.9616 150.0945,164.6918 Q150.688,164.422 151.3188,163.841 Z " fill="#000000"/><text fill="#000000" font-family="sans-serif" font-size="12" font-style="italic" lengthAdjust="spacing" textLength="84.0586" x="378.9951" y="156.7116">&#171;requirement&#187;</text><text fill="#000000" font-family="sans-serif" font-size="14" lengthAdjust="spacing" textLength="503.3574" x="169.3457" y="172.778">REQ-002: Variable Assist Torque based on Driver Input and Vehicle Speed</text><line style="stroke:#181818;stroke-width:0.5;" x1="8" x2="801.5488" y1="180.7311" y2="180.7311"/><text fill="#000000" font-family="sans-serif" font-size="14" lengthAdjust="spacing" textLength="783.5488" x="13" y="198.2662">"Calculate and provide assist torque using driver torque and vehicle speed, following a calibrated map or function."</text><line style="stroke:#181818;stroke-width:0.5;" x1="8" x2="801.5488" y1="205.2194" y2="205.2194"/></g><!--class REQ_003--><g class="entity" data-entity="REQ_003" data-source-line="13" data-uid="ent0004" id="entity_REQ_003"><rect fill="#F1F1F1" height="73.1094" rx="2.5" ry="2.5" style="stroke:#181818;stroke-width:0.5;" width="655.7061" x="837.92" y="140.11"/><ellipse cx="1040.4005" cy="160.4205" fill="#ADD1B2" rx="11" ry="11" style="stroke:#181818;stroke-width:1;"/><path d="M1042.8736,166.5636 Q1042.2926,166.8624 1041.6534,167.0119 Q1041.0142,167.1613 1040.3087,167.1613 Q1037.8018,167.1613 1036.482,165.5094 Q1035.1622,163.8576 1035.1622,160.7365 Q1035.1622,157.6071 1036.482,155.9552 Q1037.8018,154.3034 1040.3087,154.3034 Q1041.0142,154.3034 1041.6617,154.4528 Q1042.3092,154.6022 1042.8736,154.901 L1042.8736,157.6237 Q1042.2428,157.0426 1041.6492,156.7728 Q1041.0557,156.5031 1040.4249,156.5031 Q1039.0802,156.5031 1038.3953,157.5697 Q1037.7105,158.6364 1037.7105,160.7365 Q1037.7105,162.8283 1038.3953,163.8949 Q1039.0802,164.9616 1040.4249,164.9616 Q1041.0557,164.9616 1041.6492,164.6918 Q1042.2428,164.422 1042.8736,163.841 Z " fill="#000000"/><text fill="#000000" font-family="sans-serif" font-size="12" font-style="italic" lengthAdjust="spacing" textLength="84.0586" x="1139.9937" y="156.7116">&#171;requirement&#187;</text><text fill="#000000" font-family="sans-serif" font-size="14" lengthAdjust="spacing" textLength="242.2451" x="1060.9005" y="172.778">REQ-003: Manual Steering Override</text><line style="stroke:#181818;stroke-width:0.5;" x1="838.92" x2="1492.6261" y1="180.7311" y2="180.7311"/><text fill="#000000" font-family="sans-serif" font-size="14" lengthAdjust="spacing" textLength="643.7061" x="843.92" y="198.2662">"Allow the driver to manually steer the vehicle at all times, even in the event of system failure."</text><line style="stroke:#181818;stroke-width:0.5;" x1="838.92" x2="1492.6261" y1="205.2194" y2="205.2194"/></g><!--class REQ_004--><g class="entity" data-entity="REQ_004" data-source-line="16" data-uid="ent0005" id="entity_REQ_004"><rect fill="#F1F1F1" height="73.1094" rx="2.5" ry="2.5" style="stroke:#181818;stroke-width:0.5;" width="821.8057" x="1528.87" y="140.11"/><ellipse cx="1770.8554" cy="160.4205" fill="#ADD1B2" rx="11" ry="11" style="stroke:#181818;stroke-width:1;"/><path d="M1773.3285,166.5636 Q1772.7474,166.8624 1772.1083,167.0119 Q1771.4691,167.1613 1770.7636,167.1613 Q1768.2567,167.1613 1766.9369,165.5094 Q1765.6171,163.8576 1765.6171,160.7365 Q1765.6171,157.6071 1766.9369,155.9552 Q1768.2567,154.3034 1770.7636,154.3034 Q1771.4691,154.3034 1772.1166,154.4528 Q1772.764,154.6022 1773.3285,154.901 L1773.3285,157.6237 Q1772.6976,157.0426 1772.1041,156.7728 Q1771.5106,156.5031 1770.8798,156.5031 Q1769.535,156.5031 1768.8502,157.5697 Q1768.1654,158.6364 1768.1654,160.7365 Q1768.1654,162.8283 1768.8502,163.8949 Q1769.535,164.9616 1770.8798,164.9616 Q1771.5106,164.9616 1772.1041,164.6918 Q1772.6976,164.422 1773.3285,163.841 Z " fill="#000000"/><text fill="#000000" font-family="sans-serif" font-size="12" font-style="italic" lengthAdjust="spacing" textLength="84.0586" x="1913.9935" y="156.7116">&#171;requirement&#187;</text><text fill="#000000" font-family="sans-serif" font-size="14" lengthAdjust="spacing" textLength="329.335" x="1791.3554" y="172.778">REQ-004: Self-Diagnosis and Fault Management</text><line style="stroke:#181818;stroke-width:0.5;" x1="1529.87" x2="2349.6757" y1="180.7311" y2="180.7311"/><text fill="#000000" font-family="sans-serif" font-size="14" lengthAdjust="spacing" textLength="809.8057" x="1534.87" y="198.2662">"Continuously monitor sensors, motor, and ECU; detect and log faults; activate warning and failsafe modes as needed."</text><line style="stroke:#181818;stroke-width:0.5;" x1="1529.87" x2="2349.6757" y1="205.2194" y2="205.2194"/></g><!--class REQ_005--><g class="entity" data-entity="REQ_005" data-source-line="19" data-uid="ent0006" id="entity_REQ_005"><rect fill="#F1F1F1" height="73.1094" rx="2.5" ry="2.5" style="stroke:#181818;stroke-width:0.5;" width="895.5928" x="2385.98" y="140.11"/><ellipse cx="2689.8989" cy="160.4205" fill="#ADD1B2" rx="11" ry="11" style="stroke:#181818;stroke-width:1;"/><path d="M2692.3721,166.5636 Q2691.791,166.8624 2691.1519,167.0119 Q2690.5127,167.1613 2689.8071,167.1613 Q2687.3003,167.1613 2685.9805,165.5094 Q2684.6607,163.8576 2684.6607,160.7365 Q2684.6607,157.6071 2685.9805,155.9552 Q2687.3003,154.3034 2689.8071,154.3034 Q2690.5127,154.3034 2691.1602,154.4528 Q2691.8076,154.6022 2692.3721,154.901 L2692.3721,157.6237 Q2691.7412,157.0426 2691.1477,156.7728 Q2690.5542,156.5031 2689.9234,156.5031 Q2688.5786,156.5031 2687.8938,157.5697 Q2687.209,158.6364 2687.209,160.7365 Q2687.209,162.8283 2687.8938,163.8949 Q2688.5786,164.9616 2689.9234,164.9616 Q2690.5542,164.9616 2691.1477,164.6918 Q2691.7412,164.422 2692.3721,163.841 Z " fill="#000000"/><text fill="#000000" font-family="sans-serif" font-size="12" font-style="italic" lengthAdjust="spacing" textLength="84.0586" x="2807.9971" y="156.7116">&#171;requirement&#187;</text><text fill="#000000" font-family="sans-serif" font-size="14" lengthAdjust="spacing" textLength="279.2549" x="2710.3989" y="172.778">REQ-005: ADAS Integration and Override</text><line style="stroke:#181818;stroke-width:0.5;" x1="2386.98" x2="3280.5728" y1="180.7311" y2="180.7311"/><line style="stroke:#181818;stroke-width:0.5;" x1="2386.98" x2="3280.5728" y1="188.7311" y2="188.7311"/><text fill="#000000" font-family="sans-serif" font-size="14" lengthAdjust="spacing" textLength="883.5928" x="2391.98" y="206.2662">"Support integration with ADAS features (e.g., lane keeping, park assist) and allow ADAS to override or supplement assist torque."</text></g><!--class REQ_006--><g class="entity" data-entity="REQ_006" data-source-line="22" data-uid="ent0007" id="entity_REQ_006"><rect fill="#F1F1F1" height="73.1094" rx="2.5" ry="2.5" style="stroke:#181818;stroke-width:0.5;" width="712.1436" x="3316.7" y="140.11"/><ellipse cx="3545.6116" cy="160.4205" fill="#ADD1B2" rx="11" ry="11" style="stroke:#181818;stroke-width:1;"/><path d="M3548.0848,166.5636 Q3547.5037,166.8624 3546.8646,167.0119 Q3546.2254,167.1613 3545.5198,167.1613 Q3543.013,167.1613 3541.6932,165.5094 Q3540.3733,163.8576 3540.3733,160.7365 Q3540.3733,157.6071 3541.6932,155.9552 Q3543.013,154.3034 3545.5198,154.3034 Q3546.2254,154.3034 3546.8729,154.4528 Q3547.5203,154.6022 3548.0848,154.901 L3548.0848,157.6237 Q3547.4539,157.0426 3546.8604,156.7728 Q3546.2669,156.5031 3545.636,156.5031 Q3544.2913,156.5031 3543.6065,157.5697 Q3542.9217,158.6364 3542.9217,160.7365 Q3542.9217,162.8283 3543.6065,163.8949 Q3544.2913,164.9616 3545.636,164.9616 Q3546.2669,164.9616 3546.8604,164.6918 Q3547.4539,164.422 3548.0848,163.841 Z " fill="#000000"/><text fill="#000000" font-family="sans-serif" font-size="12" font-style="italic" lengthAdjust="spacing" textLength="84.0586" x="3646.9925" y="156.7116">&#171;requirement&#187;</text><text fill="#000000" font-family="sans-serif" font-size="14" lengthAdjust="spacing" textLength="245.8203" x="3566.1116" y="172.778">REQ-006: Return-to-Center Control</text><line style="stroke:#181818;stroke-width:0.5;" x1="3317.7" x2="4027.8436" y1="180.7311" y2="180.7311"/><text fill="#000000" font-family="sans-serif" font-size="14" lengthAdjust="spacing" textLength="700.1436" x="3322.7" y="198.2662">"Provide additional assist torque at low speeds to help the steering wheel return to center after a turn."</text><line style="stroke:#181818;stroke-width:0.5;" x1="3317.7" x2="4027.8436" y1="205.2194" y2="205.2194"/></g><!--class REQ_007--><g class="entity" data-entity="REQ_007" data-source-line="25" data-uid="ent0008" id="entity_REQ_007"><rect fill="#F1F1F1" height="73.1094" rx="2.5" ry="2.5" style="stroke:#181818;stroke-width:0.5;" width="608.1689" x="4063.69" y="140.11"/><ellipse cx="4182.7549" cy="160.4205" fill="#ADD1B2" rx="11" ry="11" style="stroke:#181818;stroke-width:1;"/><path d="M4185.2281,166.5636 Q4184.647,166.8624 4184.0079,167.0119 Q4183.3687,167.1613 4182.6631,167.1613 Q4180.1563,167.1613 4178.8365,165.5094 Q4177.5167,163.8576 4177.5167,160.7365 Q4177.5167,157.6071 4178.8365,155.9552 Q4180.1563,154.3034 4182.6631,154.3034 Q4183.3687,154.3034 4184.0162,154.4528 Q4184.6636,154.6022 4185.2281,154.901 L4185.2281,157.6237 Q4184.5972,157.0426 4184.0037,156.7728 Q4183.4102,156.5031 4182.7794,156.5031 Q4181.4346,156.5031 4180.7498,157.5697 Q4180.065,158.6364 4180.065,160.7365 Q4180.065,162.8283 4180.7498,163.8949 Q4181.4346,164.9616 4182.7794,164.9616 Q4183.4102,164.9616 4184.0037,164.6918 Q4184.5972,164.422 4185.2281,163.841 Z " fill="#000000"/><text fill="#000000" font-family="sans-serif" font-size="12" font-style="italic" lengthAdjust="spacing" textLength="84.0586" x="4341.9952" y="156.7116">&#171;requirement&#187;</text><text fill="#000000" font-family="sans-serif" font-size="14" lengthAdjust="spacing" textLength="361.5391" x="4203.2549" y="172.778">REQ-007: Active Damping and Vibration Suppression</text><line style="stroke:#181818;stroke-width:0.5;" x1="4064.69" x2="4670.8589" y1="180.7311" y2="180.7311"/><text fill="#000000" font-family="sans-serif" font-size="14" lengthAdjust="spacing" textLength="596.1689" x="4069.69" y="198.2662">"Implement algorithms to suppress road-induced vibrations and improve steering feel."</text><line style="stroke:#181818;stroke-width:0.5;" x1="4064.69" x2="4670.8589" y1="205.2194" y2="205.2194"/></g><!--class REQ_008--><g class="entity" data-entity="REQ_008" data-source-line="30" data-uid="ent0009" id="entity_REQ_008"><rect fill="#F1F1F1" height="73.1094" rx="2.5" ry="2.5" style="stroke:#181818;stroke-width:0.5;" width="475.292" x="4707.13" y="140.11"/><ellipse cx="4822.4318" cy="160.4205" fill="#ADD1B2" rx="11" ry="11" style="stroke:#181818;stroke-width:1;"/><path d="M4824.9049,166.5636 Q4824.3238,166.8624 4823.6847,167.0119 Q4823.0455,167.1613 4822.34,167.1613 Q4819.8331,167.1613 4818.5133,165.5094 Q4817.1935,163.8576 4817.1935,160.7365 Q4817.1935,157.6071 4818.5133,155.9552 Q4819.8331,154.3034 4822.34,154.3034 Q4823.0455,154.3034 4823.693,154.4528 Q4824.3404,154.6022 4824.9049,154.901 L4824.9049,157.6237 Q4824.274,157.0426 4823.6805,156.7728 Q4823.087,156.5031 4822.4562,156.5031 Q4821.1114,156.5031 4820.4266,157.5697 Q4819.7418,158.6364 4819.7418,160.7365 Q4819.7418,162.8283 4820.4266,163.8949 Q4821.1114,164.9616 4822.4562,164.9616 Q4823.087,164.9616 4823.6805,164.6918 Q4824.274,164.422 4824.9049,163.841 Z " fill="#000000"/><text fill="#000000" font-family="sans-serif" font-size="12" font-style="italic" lengthAdjust="spacing" textLength="84.0586" x="4918.9967" y="156.7116">&#171;requirement&#187;</text><text fill="#000000" font-family="sans-serif" font-size="14" lengthAdjust="spacing" textLength="236.1885" x="4842.9318" y="172.778">REQ-008: Response Time &lt; 10 ms</text><line style="stroke:#181818;stroke-width:0.5;" x1="4708.13" x2="5181.422" y1="180.7311" y2="180.7311"/><text fill="#000000" font-family="sans-serif" font-size="14" lengthAdjust="spacing" textLength="463.292" x="4713.13" y="198.2662">"The system shall respond to steering input within 10 milliseconds."</text><line style="stroke:#181818;stroke-width:0.5;" x1="4708.13" x2="5181.422" y1="205.2194" y2="205.2194"/></g><!--class REQ_009--><g class="entity" data-entity="REQ_009" data-source-line="33" data-uid="ent0010" id="entity_REQ_009"><rect fill="#F1F1F1" height="73.1094" rx="2.5" ry="2.5" style="stroke:#181818;stroke-width:0.5;" width="568.1855" x="5217.68" y="140.11"/><ellipse cx="5364.6766" cy="160.4205" fill="#ADD1B2" rx="11" ry="11" style="stroke:#181818;stroke-width:1;"/><path d="M5367.1497,166.5636 Q5366.5687,166.8624 5365.9295,167.0119 Q5365.2904,167.1613 5364.5848,167.1613 Q5362.0779,167.1613 5360.7581,165.5094 Q5359.4383,163.8576 5359.4383,160.7365 Q5359.4383,157.6071 5360.7581,155.9552 Q5362.0779,154.3034 5364.5848,154.3034 Q5365.2904,154.3034 5365.9378,154.4528 Q5366.5853,154.6022 5367.1497,154.901 L5367.1497,157.6237 Q5366.5189,157.0426 5365.9254,156.7728 Q5365.3319,156.5031 5364.701,156.5031 Q5363.3563,156.5031 5362.6715,157.5697 Q5361.9866,158.6364 5361.9866,160.7365 Q5361.9866,162.8283 5362.6715,163.8949 Q5363.3563,164.9616 5364.701,164.9616 Q5365.3319,164.9616 5365.9254,164.6918 Q5366.5189,164.422 5367.1497,163.841 Z " fill="#000000"/><text fill="#000000" font-family="sans-serif" font-size="12" font-style="italic" lengthAdjust="spacing" textLength="84.0586" x="5475.9935" y="156.7116">&#171;requirement&#187;</text><text fill="#000000" font-family="sans-serif" font-size="14" lengthAdjust="spacing" textLength="265.6924" x="5385.1766" y="172.778">REQ-009: Power Consumption &lt; 500W</text><line style="stroke:#181818;stroke-width:0.5;" x1="5218.68" x2="5784.8655" y1="180.7311" y2="180.7311"/><text fill="#000000" font-family="sans-serif" font-size="14" lengthAdjust="spacing" textLength="556.1855" x="5223.68" y="198.2662">"The system shall not exceed 500W power consumption under normal operation."</text><line style="stroke:#181818;stroke-width:0.5;" x1="5218.68" x2="5784.8655" y1="205.2194" y2="205.2194"/></g><!--class REQ_010--><g class="entity" data-entity="REQ_010" data-source-line="38" data-uid="ent0011" id="entity_REQ_010"><rect fill="#F1F1F1" height="73.1094" rx="2.5" ry="2.5" style="stroke:#181818;stroke-width:0.5;" width="688.1836" x="5820.68" y="140.11"/><ellipse cx="5995.8372" cy="160.4205" fill="#ADD1B2" rx="11" ry="11" style="stroke:#181818;stroke-width:1;"/><path d="M5998.3104,166.5636 Q5997.7293,166.8624 5997.0902,167.0119 Q5996.451,167.1613 5995.7454,167.1613 Q5993.2386,167.1613 5991.9188,165.5094 Q5990.5989,163.8576 5990.5989,160.7365 Q5990.5989,157.6071 5991.9188,155.9552 Q5993.2386,154.3034 5995.7454,154.3034 Q5996.451,154.3034 5997.0985,154.4528 Q5997.7459,154.6022 5998.3104,154.901 L5998.3104,157.6237 Q5997.6795,157.0426 5997.086,156.7728 Q5996.4925,156.5031 5995.8616,156.5031 Q5994.5169,156.5031 5993.8321,157.5697 Q5993.1473,158.6364 5993.1473,160.7365 Q5993.1473,162.8283 5993.8321,163.8949 Q5994.5169,164.9616 5995.8616,164.9616 Q5996.4925,164.9616 5997.086,164.6918 Q5997.6795,164.422 5998.3104,163.841 Z " fill="#000000"/><text fill="#000000" font-family="sans-serif" font-size="12" font-style="italic" lengthAdjust="spacing" textLength="84.0586" x="6138.9925" y="156.7116">&#171;requirement&#187;</text><text fill="#000000" font-family="sans-serif" font-size="14" lengthAdjust="spacing" textLength="329.3691" x="6016.3372" y="172.778">REQ-010: Fail-Safe Operation and Failsafe Mode</text><line style="stroke:#181818;stroke-width:0.5;" x1="5821.68" x2="6507.8636" y1="180.7311" y2="180.7311"/><text fill="#000000" font-family="sans-serif" font-size="14" lengthAdjust="spacing" textLength="676.1836" x="5826.68" y="198.2662">"In case of critical failure, revert to manual steering and/or reduced assist to ensure driver control."</text><line style="stroke:#181818;stroke-width:0.5;" x1="5821.68" x2="6507.8636" y1="205.2194" y2="205.2194"/></g><!--class REQ_011--><g class="entity" data-entity="REQ_011" data-source-line="41" data-uid="ent0012" id="entity_REQ_011"><rect fill="#F1F1F1" height="73.1094" rx="2.5" ry="2.5" style="stroke:#181818;stroke-width:0.5;" width="564.9385" x="6544.31" y="140.11"/><ellipse cx="6702.9003" cy="160.4205" fill="#ADD1B2" rx="11" ry="11" style="stroke:#181818;stroke-width:1;"/><path d="M6705.3735,166.5636 Q6704.7924,166.8624 6704.1533,167.0119 Q6703.5141,167.1613 6702.8085,167.1613 Q6700.3017,167.1613 6698.9819,165.5094 Q6697.6621,163.8576 6697.6621,160.7365 Q6697.6621,157.6071 6698.9819,155.9552 Q6700.3017,154.3034 6702.8085,154.3034 Q6703.5141,154.3034 6704.1616,154.4528 Q6704.809,154.6022 6705.3735,154.901 L6705.3735,157.6237 Q6704.7426,157.0426 6704.1491,156.7728 Q6703.5556,156.5031 6702.9247,156.5031 Q6701.58,156.5031 6700.8952,157.5697 Q6700.2104,158.6364 6700.2104,160.7365 Q6700.2104,162.8283 6700.8952,163.8949 Q6701.58,164.9616 6702.9247,164.9616 Q6703.5556,164.9616 6704.1491,164.6918 Q6704.7426,164.422 6705.3735,163.841 Z " fill="#000000"/><text fill="#000000" font-family="sans-serif" font-size="12" font-style="italic" lengthAdjust="spacing" textLength="84.0586" x="6800.9999" y="156.7116">&#171;requirement&#187;</text><text fill="#000000" font-family="sans-serif" font-size="14" lengthAdjust="spacing" textLength="239.2578" x="6723.4003" y="172.778">REQ-011: Fault Indication to Driver</text><line style="stroke:#181818;stroke-width:0.5;" x1="6545.31" x2="7108.2485" y1="180.7311" y2="180.7311"/><text fill="#000000" font-family="sans-serif" font-size="14" lengthAdjust="spacing" textLength="552.9385" x="6550.31" y="198.2662">"Indicate detected faults to the driver via dashboard warning lights or messages."</text><line style="stroke:#181818;stroke-width:0.5;" x1="6545.31" x2="7108.2485" y1="205.2194" y2="205.2194"/></g><!--class REQ_012--><g class="entity" data-entity="REQ_012" data-source-line="46" data-uid="ent0013" id="entity_REQ_012"><rect fill="#F1F1F1" height="73.1094" rx="2.5" ry="2.5" style="stroke:#181818;stroke-width:0.5;" width="455.5361" x="7144.01" y="140.11"/><ellipse cx="7201.8796" cy="160.4205" fill="#ADD1B2" rx="11" ry="11" style="stroke:#181818;stroke-width:1;"/><path d="M7204.3528,166.5636 Q7203.7717,166.8624 7203.1326,167.0119 Q7202.4934,167.1613 7201.7878,167.1613 Q7199.281,167.1613 7197.9612,165.5094 Q7196.6413,163.8576 7196.6413,160.7365 Q7196.6413,157.6071 7197.9612,155.9552 Q7199.281,154.3034 7201.7878,154.3034 Q7202.4934,154.3034 7203.1409,154.4528 Q7203.7883,154.6022 7204.3528,154.901 L7204.3528,157.6237 Q7203.7219,157.0426 7203.1284,156.7728 Q7202.5349,156.5031 7201.904,156.5031 Q7200.5593,156.5031 7199.8745,157.5697 Q7199.1897,158.6364 7199.1897,160.7365 Q7199.1897,162.8283 7199.8745,163.8949 Q7200.5593,164.9616 7201.904,164.9616 Q7202.5349,164.9616 7203.1284,164.6918 Q7203.7219,164.422 7204.3528,163.841 Z " fill="#000000"/><text fill="#000000" font-family="sans-serif" font-size="12" font-style="italic" lengthAdjust="spacing" textLength="84.0586" x="7345.9988" y="156.7116">&#171;requirement&#187;</text><text fill="#000000" font-family="sans-serif" font-size="14" lengthAdjust="spacing" textLength="331.2969" x="7222.3796" y="172.778">REQ-012: Operating Temperature -40C to +85C</text><line style="stroke:#181818;stroke-width:0.5;" x1="7145.01" x2="7598.5461" y1="180.7311" y2="180.7311"/><text fill="#000000" font-family="sans-serif" font-size="14" lengthAdjust="spacing" textLength="443.5361" x="7150.01" y="198.2662">"Operate reliably within a temperature range of -40&#176;C to +85&#176;C."</text><line style="stroke:#181818;stroke-width:0.5;" x1="7145.01" x2="7598.5461" y1="205.2194" y2="205.2194"/></g><!--class REQ_013--><g class="entity" data-entity="REQ_013" data-source-line="49" data-uid="ent0014" id="entity_REQ_013"><rect fill="#F1F1F1" height="73.1094" rx="2.5" ry="2.5" style="stroke:#181818;stroke-width:0.5;" width="360.332" x="7634.61" y="140.11"/><ellipse cx="7657.6182" cy="160.4205" fill="#ADD1B2" rx="11" ry="11" style="stroke:#181818;stroke-width:1;"/><path d="M7660.0913,166.5636 Q7659.5102,166.8624 7658.8711,167.0119 Q7658.2319,167.1613 7657.5264,167.1613 Q7655.0195,167.1613 7653.6997,165.5094 Q7652.3799,163.8576 7652.3799,160.7365 Q7652.3799,157.6071 7653.6997,155.9552 Q7655.0195,154.3034 7657.5264,154.3034 Q7658.2319,154.3034 7658.8794,154.4528 Q7659.5268,154.6022 7660.0913,154.901 L7660.0913,157.6237 Q7659.4604,157.0426 7658.8669,156.7728 Q7658.2734,156.5031 7657.6426,156.5031 Q7656.2978,156.5031 7655.613,157.5697 Q7654.9282,158.6364 7654.9282,160.7365 Q7654.9282,162.8283 7655.613,163.8949 Q7656.2978,164.9616 7657.6426,164.9616 Q7658.2734,164.9616 7658.8669,164.6918 Q7659.4604,164.422 7660.0913,163.841 Z " fill="#000000"/><text fill="#000000" font-family="sans-serif" font-size="12" font-style="italic" lengthAdjust="spacing" textLength="84.0586" x="7786.6365" y="156.7116">&#171;requirement&#187;</text><text fill="#000000" font-family="sans-serif" font-size="14" lengthAdjust="spacing" textLength="310.5361" x="7673.3977" y="172.778">REQ-013: Vibration Resistance (ISO 16750-3)</text><line style="stroke:#181818;stroke-width:0.5;" x1="7635.61" x2="7993.942" y1="180.7311" y2="180.7311"/><text fill="#000000" font-family="sans-serif" font-size="14" lengthAdjust="spacing" textLength="348.332" x="7640.61" y="198.2662">"Withstand vibrations as specified in ISO 16750-3."</text><line style="stroke:#181818;stroke-width:0.5;" x1="7635.61" x2="7993.942" y1="205.2194" y2="205.2194"/></g><!--class REQ_014--><g class="entity" data-entity="REQ_014" data-source-line="54" data-uid="ent0015" id="entity_REQ_014"><rect fill="#F1F1F1" height="73.1094" rx="2.5" ry="2.5" style="stroke:#181818;stroke-width:0.5;" width="417.6309" x="8029.96" y="140.11"/><ellipse cx="8057.2748" cy="160.4205" fill="#ADD1B2" rx="11" ry="11" style="stroke:#181818;stroke-width:1;"/><path d="M8059.7479,166.5636 Q8059.1669,166.8624 8058.5277,167.0119 Q8057.8886,167.1613 8057.183,167.1613 Q8054.6762,167.1613 8053.3563,165.5094 Q8052.0365,163.8576 8052.0365,160.7365 Q8052.0365,157.6071 8053.3563,155.9552 Q8054.6762,154.3034 8057.183,154.3034 Q8057.8886,154.3034 8058.536,154.4528 Q8059.1835,154.6022 8059.7479,154.901 L8059.7479,157.6237 Q8059.1171,157.0426 8058.5236,156.7728 Q8057.9301,156.5031 8057.2992,156.5031 Q8055.9545,156.5031 8055.2697,157.5697 Q8054.5849,158.6364 8054.5849,160.7365 Q8054.5849,162.8283 8055.2697,163.8949 Q8055.9545,164.9616 8057.2992,164.9616 Q8057.9301,164.9616 8058.5236,164.6918 Q8059.1171,164.422 8059.7479,163.841 Z " fill="#000000"/><text fill="#000000" font-family="sans-serif" font-size="12" font-style="italic" lengthAdjust="spacing" textLength="84.0586" x="8211.1144" y="156.7116">&#171;requirement&#187;</text><text fill="#000000" font-family="sans-serif" font-size="14" lengthAdjust="spacing" textLength="358.2646" x="8074.0114" y="172.778">REQ-014: CAN Communication with Vehicle Systems</text><line style="stroke:#181818;stroke-width:0.5;" x1="8030.96" x2="8446.5909" y1="180.7311" y2="180.7311"/><text fill="#000000" font-family="sans-serif" font-size="14" lengthAdjust="spacing" textLength="405.6309" x="8035.96" y="198.2662">"Communicate with other vehicle systems via the CAN bus."</text><line style="stroke:#181818;stroke-width:0.5;" x1="8030.96" x2="8446.5909" y1="205.2194" y2="205.2194"/></g><!--class REQ_015--><g class="entity" data-entity="REQ_015" data-source-line="57" data-uid="ent0016" id="entity_REQ_015"><rect fill="#F1F1F1" height="73.1094" rx="2.5" ry="2.5" style="stroke:#181818;stroke-width:0.5;" width="669.6172" x="8482.97" y="140.11"/><ellipse cx="8617.5662" cy="160.4205" fill="#ADD1B2" rx="11" ry="11" style="stroke:#181818;stroke-width:1;"/><path d="M8620.0393,166.5636 Q8619.4583,166.8624 8618.8191,167.0119 Q8618.18,167.1613 8617.4744,167.1613 Q8614.9676,167.1613 8613.6477,165.5094 Q8612.3279,163.8576 8612.3279,160.7365 Q8612.3279,157.6071 8613.6477,155.9552 Q8614.9676,154.3034 8617.4744,154.3034 Q8618.18,154.3034 8618.8274,154.4528 Q8619.4749,154.6022 8620.0393,154.901 L8620.0393,157.6237 Q8619.4085,157.0426 8618.815,156.7728 Q8618.2215,156.5031 8617.5906,156.5031 Q8616.2459,156.5031 8615.5611,157.5697 Q8614.8763,158.6364 8614.8763,160.7365 Q8614.8763,162.8283 8615.5611,163.8949 Q8616.2459,164.9616 8617.5906,164.9616 Q8618.2215,164.9616 8618.815,164.6918 Q8619.4085,164.422 8620.0393,163.841 Z " fill="#000000"/><text fill="#000000" font-family="sans-serif" font-size="12" font-style="italic" lengthAdjust="spacing" textLength="84.0586" x="8791.9993" y="156.7116">&#171;requirement&#187;</text><text fill="#000000" font-family="sans-serif" font-size="14" lengthAdjust="spacing" textLength="391.9248" x="8638.0662" y="172.778">REQ-015: Sensor Data Acquisition (Torque, Angle, Speed)</text><line style="stroke:#181818;stroke-width:0.5;" x1="8483.97" x2="9151.5872" y1="180.7311" y2="180.7311"/><text fill="#000000" font-family="sans-serif" font-size="14" lengthAdjust="spacing" textLength="657.6172" x="8488.97" y="198.2662">"Continuously acquire and process data from torque, steering angle, and vehicle speed sensors."</text><line style="stroke:#181818;stroke-width:0.5;" x1="8483.97" x2="9151.5872" y1="205.2194" y2="205.2194"/></g><!--link REQ_001 to REQ_002--><g class="link" data-entity-1="REQ_001" data-entity-2="REQ_002" data-source-line="62" data-uid="lnk17" id="link_REQ_001_REQ_002"><path codeLine="62" d="M4804.03,44.79 C4021.18,47.2 2282.78,61.84 820.77,140.11 C814.89,140.43 826.9409,139.7365 820.9709,140.0765" fill="none" id="REQ_001-to-REQ_002" style="stroke:#181818;stroke-width:1;"/><polygon fill="none" points="803,141.1,821.312,146.0668,820.6297,134.0862,803,141.1" style="stroke:#181818;stroke-width:1;"/></g><!--link REQ_001 to REQ_003--><g class="link" data-entity-1="REQ_001" data-entity-2="REQ_003" data-source-line="63" data-uid="lnk18" id="link_REQ_001_REQ_003"><path codeLine="63" d="M4804.21,44.89 C4116.43,47.79 2704.44,63.59 1511.77,140.11 C1505.9,140.49 1517.9256,139.6268 1511.9556,140.0468" fill="none" id="REQ_001-to-REQ_003" style="stroke:#181818;stroke-width:1;"/><polygon fill="none" points="1494,141.31,1512.3767,146.032,1511.5346,134.0616,1494,141.31" style="stroke:#181818;stroke-width:1;"/></g><!--link REQ_001 to REQ_004--><g class="link" data-entity-1="REQ_001" data-entity-2="REQ_004" data-source-line="64" data-uid="lnk19" id="link_REQ_001_REQ_004"><path codeLine="64" d="M4804.16,52.13 C4247.64,63.66 3233.66,89.82 2368.77,140.11 C2362.9,140.45 2374.9473,139.7247 2368.9873,140.0847" fill="none" id="REQ_001-to-REQ_004" style="stroke:#181818;stroke-width:1;"/><polygon fill="none" points="2351.02,141.17,2369.349,146.0738,2368.6255,134.0956,2351.02,141.17" style="stroke:#181818;stroke-width:1;"/></g><!--link REQ_001 to REQ_005--><g class="link" data-entity-1="REQ_001" data-entity-2="REQ_005" data-source-line="65" data-uid="lnk20" id="link_REQ_001_REQ_005"><path codeLine="65" d="M4804.11,62.13 C4414.25,79.25 3816.96,107.44 3298.77,140.11 C3293.22,140.46 3305.5933,139.6714 3299.9633,140.0314" fill="none" id="REQ_001-to-REQ_005" style="stroke:#181818;stroke-width:1;"/><polygon fill="none" points="3282,141.18,3300.3462,146.0191,3299.5804,134.0436,3282,141.18" style="stroke:#181818;stroke-width:1;"/></g><!--link REQ_001 to REQ_006--><g class="link" data-entity-1="REQ_001" data-entity-2="REQ_006" data-source-line="66" data-uid="lnk21" id="link_REQ_001_REQ_006"><path codeLine="66" d="M4804.23,77.1 C4579.34,94.95 4297.35,117.91 4045.77,140.11 C4040.27,140.6 4052.6384,139.4864 4047.0484,139.9864" fill="none" id="REQ_001-to-REQ_006" style="stroke:#181818;stroke-width:1;"/><polygon fill="none" points="4029.12,141.59,4047.583,145.9625,4046.5139,134.0102,4029.12,141.59" style="stroke:#181818;stroke-width:1;"/></g><!--link REQ_001 to REQ_007--><g class="link" data-entity-1="REQ_001" data-entity-2="REQ_007" data-source-line="67" data-uid="lnk22" id="link_REQ_001_REQ_007"><path codeLine="67" d="M4987.73,80.6 C4867.85,98.98 4740.242,118.5512 4620.402,136.9312" fill="none" id="REQ_001-to-REQ_007" style="stroke:#181818;stroke-width:1;"/><polygon fill="none" points="4602.61,139.66,4621.3115,142.8619,4619.4924,131.0006,4602.61,139.66" style="stroke:#181818;stroke-width:1;"/></g><!--link REQ_001 to REQ_008--><g class="link" data-entity-1="REQ_001" data-entity-2="REQ_008" data-source-line="68" data-uid="lnk23" id="link_REQ_001_REQ_008"><path codeLine="68" d="M5146.44,80.56 C5107.38,98.98 5076.2498,113.661 5037.2198,132.071" fill="none" id="REQ_001-to-REQ_008" style="stroke:#181818;stroke-width:1;"/><polygon fill="none" points="5020.94,139.75,5039.7795,137.4976,5034.6602,126.6444,5020.94,139.75" style="stroke:#181818;stroke-width:1;"/></g><!--link REQ_001 to REQ_009--><g class="link" data-entity-1="REQ_001" data-entity-2="REQ_009" data-source-line="69" data-uid="lnk24" id="link_REQ_001_REQ_009"><path codeLine="69" d="M5299.38,80.56 C5338.58,98.98 5369.8688,113.6851 5409.0488,132.0951" fill="none" id="REQ_001-to-REQ_009" style="stroke:#181818;stroke-width:1;"/><polygon fill="none" points="5425.34,139.75,5411.6005,126.6647,5406.4972,137.5255,5425.34,139.75" style="stroke:#181818;stroke-width:1;"/></g><!--link REQ_001 to REQ_010--><g class="link" data-entity-1="REQ_001" data-entity-2="REQ_010" data-source-line="70" data-uid="lnk25" id="link_REQ_001_REQ_010"><path codeLine="70" d="M5481.74,80.6 C5613.81,98.98 5756.1719,118.7985 5888.2219,137.1785" fill="none" id="REQ_001-to-REQ_010" style="stroke:#181818;stroke-width:1;"/><polygon fill="none" points="5906.05,139.66,5889.049,131.2358,5887.3947,143.1212,5906.05,139.66" style="stroke:#181818;stroke-width:1;"/></g><!--link REQ_001 to REQ_011--><g class="link" data-entity-1="REQ_001" data-entity-2="REQ_011" data-source-line="71" data-uid="lnk26" id="link_REQ_001_REQ_011"><path codeLine="71" d="M5641.24,70.43 C5897.2,87.45 6231.19,111.78 6526.77,140.11 C6532.52,140.66 6520.4078,139.4541 6526.2578,140.0341" fill="none" id="REQ_001-to-REQ_011" style="stroke:#181818;stroke-width:1;"/><polygon fill="none" points="6544.17,141.81,6526.8498,134.0634,6525.6659,146.0048,6544.17,141.81" style="stroke:#181818;stroke-width:1;"/></g><!--link REQ_001 to REQ_012--><g class="link" data-entity-1="REQ_001" data-entity-2="REQ_012" data-source-line="72" data-uid="lnk27" id="link_REQ_001_REQ_012"><path codeLine="72" d="M5641.47,54.27 C6027.8,65.9 6617.01,90.44 7126.77,140.11 C7132.34,140.65 7120.0629,139.308 7125.7429,139.918" fill="none" id="REQ_001-to-REQ_012" style="stroke:#181818;stroke-width:1;"/><polygon fill="none" points="7143.64,141.84,7126.3836,133.9523,7125.1022,145.8836,7143.64,141.84" style="stroke:#181818;stroke-width:1;"/></g><!--link REQ_001 to REQ_013--><g class="link" data-entity-1="REQ_001" data-entity-2="REQ_013" data-source-line="73" data-uid="lnk28" id="link_REQ_001_REQ_013"><path codeLine="73" d="M5641.49,54.31 C6223.35,69.07 7246.63,99.69 7616.77,140.11 C7622.5,140.74 7610.4656,139.1449 7616.3256,139.8949" fill="none" id="REQ_001-to-REQ_013" style="stroke:#181818;stroke-width:1;"/><polygon fill="none" points="7634.18,142.18,7617.0873,133.9434,7615.5639,145.8463,7634.18,142.18" style="stroke:#181818;stroke-width:1;"/></g><!--link REQ_001 to REQ_014--><g class="link" data-entity-1="REQ_001" data-entity-2="REQ_014" data-source-line="74" data-uid="lnk29" id="link_REQ_001_REQ_014"><path codeLine="74" d="M5641.21,52.63 C6303.95,66.48 7565.74,97.45 8012.77,140.11 C8018.31,140.64 8006.024,139.2879 8011.674,139.8979" fill="none" id="REQ_001-to-REQ_014" style="stroke:#181818;stroke-width:1;"/><polygon fill="none" points="8029.57,141.83,8012.318,133.9325,8011.03,145.8632,8029.57,141.83" style="stroke:#181818;stroke-width:1;"/></g><!--link REQ_001 to REQ_015--><g class="link" data-entity-1="REQ_001" data-entity-2="REQ_015" data-source-line="75" data-uid="lnk30" id="link_REQ_001_REQ_015"><path codeLine="75" d="M5641.28,47.42 C6259.37,53.79 7452.47,74.29 8464.77,140.11 C8470.77,140.5 8458.8647,139.6422 8464.9547,140.0722" fill="none" id="REQ_001-to-REQ_015" style="stroke:#181818;stroke-width:1;"/><polygon fill="none" points="8482.91,141.34,8465.3773,134.0871,8464.5321,146.0573,8482.91,141.34" style="stroke:#181818;stroke-width:1;"/></g><!--SRC=[ZLRRSjis47tNL-pu9SvKTCNOyaNnU4OZErC_f7OZrtdiGEHImWG4602KusdxJ_s6VbaNIqAYAYgJ5rk2YBDdp-wUvHjuCbMYS8qAB7wjfSKIjHzaIZW7Hv_kVaj6etG2TuzpcBywZoNCLq8fUBHcBNE4kKUqKYzXwfnqNkWCZq0ue9j_q4sulkx0tjp0dmE0ewSLCg9h41qZLYqYAioybHcu22qsqE0DUBgSMxb62mlXC0UZYRfGYPSbWjHLxHq8dSCQLp9J29dHkVJIQ7ToDFXxC7W37sgTXGEnaxJRpVhT19w5bM9144rof9NzMkCsx6r3upx4v93FRSXvXPXtT7ZNhyDCgAnMmYDVZW8qwLAg7AnsGO8suVQicvqBeOPG6ANC2wi5cL1oOGasXr9KO2mKRS8im4wMfnFuA7HDIcmg-K2HB17fy3_jvpyDCRi5eVAKZAPUc_BnZv6g896eqA5ERWZKSvhAnK-4pnvC4JkY45BL5lVfdarWZgf8RgLOQaCwiHOVHAryo4CicL-7-Ta1vOtsKjUcTiIqD5gIik1GEsE9Mcdewv2XxsQ_luSSFVKaVrTcIUmed7iFWZHTX-gz2AjPUdeWK7UYG0B9qGKYcWg4-NukumbCRwTpQX-FIoeNrOSHUlGVzsSnhwlAM4ygRX5Uf5yrk0KAJo8wECQJvSaGbD08Nn0heZg4IjWlRQkzvR22YyatgOoc9H6wnr4OnO5tUtC_fVC9V48AgXDlaXbTe0u8KbkZEjcSzsSJBKNapRXIJ-wE0lLFeCWTxmB95QgA-sTZ5IyhP2SB7C8JMSD15FmNml4-wmigH2WbmgqegrZ8PvwX86cGcNHqzBcJnKL_5lVbHYkrD9QgKJ9NruA0DI9FfCxhZEPp7OCqZIpBO0ATV0fA9xhM8zh2s99zyB1jNOOIk8eG4Pw28rv3EeBITPXV7dRb7KUsZ9Cp-qY8_PMRZ4Ot04kbfCFWiMvVsQi9F9gNfWbSNLOivpMCHwFF7JvNFyX76m_uBQFgCm9K39rre6kTquaEAYam5JRQHW7dD9R-zR1swMX2LY9L4Xw4XtYzjPXsh3-QxcII0lrTeCc5gG9aQHdrW2HBZgOs908qN7vhbfrDf_EVQU0iDjsnQNyWPwAhqMQpPgJsz4xJIUk5zxJoieOztMxsL8TrUeWrtyBMy31lhUv_QtSj1UJ2hHP6s7nZVaekL_GeqITxT-J4ctLxfzVI6XqYVM_ZfhHnMz49xWbB_XpIJiv6iy3Xfylnh9F5WQtQO8GPKM5xlyPkfV7lO5gXbrmV0l_tdmXFd_PLfHsvDGCQhlWoSdm_Vu3q_68yIaxVTdWTs9QVYKQukJlrBlXP9Wj9QXF93cIKB-m7MuZlJNrAUt4s_PN6h2nh7IlFgs3pIiAJrB61zE1gZ1ZO81WglTs-RpGut0IX9qBOHRq_- -auhEgmKCbLlI27fKYEZHsEcnUf8KprKj4_VbtgAZZ-WQqjCluzlZfbmLlp4AcmfcnNnh0xMXngxzKfRlsezY-IEiHcgzT1V8LDahzkudjSt-5ft-5Pt-6ux_2yx_2Yx_2ox_2gvp0TzHscVOTz6QLz6QLz6QNZmNy0]--></g></svg>